<?xml version="1.0" encoding="utf-8"?>
<!-- Generator: Adobe Illustrator 25.0.0, SVG Export Plug-In . SVG Version: 6.00 Build 0)  -->
<svg version="1.1" id="Layer_1" xmlns="http://www.w3.org/2000/svg" xmlns:xlink="http://www.w3.org/1999/xlink" x="0px" y="0px"
	 viewBox="0 0 1920 948" style="enable-background:new 0 0 1920 948;" xml:space="preserve">
<style type="text/css">
	.st0{fill:#00758F;}
	.st1{fill:#F29111;}
	.st2{fill-rule:evenodd;clip-rule:evenodd;fill:#F29111;}
	.st3{fill-rule:evenodd;clip-rule:evenodd;fill:#00758F;}
	.st4{fill:url(#SVGID_1_);}
	.st5{fill:#6682BA;}
	.st6{fill:#FFFFFF;}
	.st7{fill:#00000E;}
	.st8{fill-rule:evenodd;clip-rule:evenodd;fill:#221E1B;}
	.st9{fill:#221E1B;}
	.st10{fill:#0F0D0E;}
	.st11{fill:url(#path3178_1_);}
	.st12{fill:none;}
	.st13{fill:#BD202E;}
	.st14{opacity:0.35;fill:#BD202E;enable-background:new    ;}
	.st15{fill:url(#path3205_1_);}
	.st16{fill:url(#path3216_1_);}
	.st17{fill:url(#path3227_1_);}
	.st18{fill:url(#path3238_1_);}
	.st19{fill:url(#path3249_1_);}
	.st20{fill:url(#path3260_1_);}
	.st21{fill:url(#path3275_1_);}
	.st22{fill:url(#path3290_1_);}
	.st23{fill:url(#path3305_1_);}
	.st24{fill:#AA0000;}
	.st25{fill-rule:evenodd;clip-rule:evenodd;fill:#B52E31;}
	.st26{fill-rule:evenodd;clip-rule:evenodd;fill:#E23237;}
	.st27{fill-rule:evenodd;clip-rule:evenodd;fill:#FFFFFF;}
	.st28{fill-rule:evenodd;clip-rule:evenodd;fill:none;stroke:#7AC943;stroke-width:5;stroke-miterlimit:10;}
	.st29{fill-rule:evenodd;clip-rule:evenodd;fill:none;stroke:#00758F;stroke-width:5;stroke-miterlimit:10;}
	.st30{fill-rule:evenodd;clip-rule:evenodd;fill:none;stroke:#3FA9F5;stroke-width:5;stroke-miterlimit:10;}
	.st31{fill-rule:evenodd;clip-rule:evenodd;fill:none;stroke:#000000;stroke-width:5;stroke-miterlimit:10;}
	.st32{fill-rule:evenodd;clip-rule:evenodd;fill:none;stroke:#E95420;stroke-width:5;stroke-miterlimit:10;}
	.st33{fill-rule:evenodd;clip-rule:evenodd;fill:none;stroke:#0080FF;stroke-width:5;stroke-miterlimit:10;}
	.st34{fill:#0080FF;}
	.st35{fill-rule:evenodd;clip-rule:evenodd;fill:#0080FF;}
	.st36{fill:#E95420;}
</style>
<g>
	<path d="M174.7,492.9c-0.9-0.5-1.7-1.3-2.2-2.2c-0.5-0.9-0.8-2-0.8-3.1s0.3-2.2,0.8-3.1c0.5-0.9,1.3-1.7,2.2-2.2
		c0.9-0.5,2-0.8,3.1-0.8c1.8,0,3.2,0.6,4.4,1.9l-1.6,1.5c-0.8-0.9-1.7-1.3-2.8-1.3c-0.7,0-1.4,0.2-2,0.5s-1.1,0.8-1.4,1.4
		c-0.3,0.6-0.5,1.3-0.5,2.1c0,0.8,0.2,1.5,0.5,2.1c0.3,0.6,0.8,1.1,1.4,1.4c0.6,0.3,1.3,0.5,2,0.5c1.2,0,2.3-0.5,3.1-1.5l1.6,1.5
		c-0.6,0.7-1.3,1.2-2.1,1.6s-1.7,0.6-2.6,0.6C176.6,493.7,175.6,493.4,174.7,492.9z"/>
	<path d="M185.6,493.1c-0.7-0.4-1.2-0.9-1.6-1.6c-0.4-0.7-0.6-1.4-0.6-2.3c0-0.8,0.2-1.6,0.6-2.3c0.4-0.7,0.9-1.2,1.6-1.6
		s1.5-0.6,2.3-0.6c0.9,0,1.6,0.2,2.3,0.6c0.7,0.4,1.2,0.9,1.6,1.6c0.4,0.7,0.6,1.4,0.6,2.3c0,0.8-0.2,1.6-0.6,2.3
		c-0.4,0.7-0.9,1.2-1.6,1.6c-0.7,0.4-1.4,0.6-2.3,0.6C187,493.7,186.3,493.5,185.6,493.1z M189.1,491.4c0.4-0.2,0.6-0.5,0.8-0.9
		c0.2-0.4,0.3-0.8,0.3-1.3c0-0.5-0.1-0.9-0.3-1.3c-0.2-0.4-0.5-0.7-0.8-0.9c-0.4-0.2-0.7-0.3-1.2-0.3c-0.4,0-0.8,0.1-1.1,0.3
		c-0.4,0.2-0.6,0.5-0.8,0.9c-0.2,0.4-0.3,0.8-0.3,1.3c0,0.5,0.1,0.9,0.3,1.3c0.2,0.4,0.5,0.7,0.8,0.9c0.4,0.2,0.7,0.3,1.1,0.3
		C188.3,491.7,188.7,491.6,189.1,491.4z"/>
	<path d="M193.8,485h2v1.1h0.1c0.3-0.4,0.6-0.7,1.1-1c0.4-0.2,0.9-0.4,1.5-0.4c0.6,0,1.1,0.1,1.5,0.4c0.4,0.3,0.7,0.6,0.9,1.1
		c0.3-0.4,0.6-0.8,1.1-1.1c0.5-0.3,1-0.4,1.7-0.4c1,0,1.7,0.3,2.2,0.9c0.5,0.6,0.7,1.4,0.7,2.4v5.4h-2.1v-5c0-0.5-0.1-0.9-0.4-1.2
		c-0.2-0.3-0.6-0.4-1-0.4c-0.6,0-1,0.2-1.3,0.7c-0.3,0.4-0.5,1-0.5,1.7v4.2h-2.2v-5c0-0.5-0.1-0.9-0.4-1.2c-0.3-0.3-0.6-0.4-1.1-0.4
		c-0.5,0-1,0.2-1.3,0.7c-0.3,0.4-0.5,1-0.5,1.7v4.2h-2.2V485z"/>
	<path d="M208.7,485h2v1h0.1c0.2-0.4,0.6-0.7,1-0.9c0.4-0.2,0.9-0.4,1.5-0.4c0.8,0,1.4,0.2,2.1,0.6c0.6,0.4,1.1,0.9,1.5,1.6
		c0.4,0.7,0.5,1.4,0.5,2.3c0,0.9-0.2,1.6-0.5,2.3c-0.4,0.7-0.8,1.2-1.5,1.6c-0.6,0.4-1.3,0.6-2.1,0.6c-0.6,0-1.1-0.1-1.5-0.4
		c-0.4-0.2-0.8-0.5-1-0.9h-0.1l0.1,1.2v3.4h-2.2V485z M214.2,491.4c0.4-0.2,0.6-0.5,0.8-0.9c0.2-0.4,0.3-0.8,0.3-1.3
		c0-0.5-0.1-0.9-0.3-1.3c-0.2-0.4-0.5-0.7-0.8-0.9c-0.4-0.2-0.7-0.3-1.1-0.3c-0.4,0-0.8,0.1-1.1,0.3c-0.4,0.2-0.6,0.5-0.8,0.9
		c-0.2,0.4-0.3,0.8-0.3,1.3c0,0.5,0.1,0.9,0.3,1.3c0.2,0.4,0.5,0.7,0.8,0.9c0.4,0.2,0.7,0.3,1.1,0.3
		C213.4,491.7,213.8,491.6,214.2,491.4z"/>
	<path d="M219.3,483.7c-0.3-0.3-0.4-0.6-0.4-1c0-0.4,0.1-0.7,0.4-1c0.3-0.3,0.6-0.4,1-0.4c0.4,0,0.7,0.1,1,0.4
		c0.3,0.3,0.4,0.6,0.4,1c0,0.4-0.1,0.7-0.4,1c-0.3,0.3-0.6,0.4-1,0.4C219.9,484.1,219.5,484,219.3,483.7z M219.2,485h2.2v8.4h-2.2
		V485z"/>
	<path d="M223.6,481.6h2.2v11.8h-2.2V481.6z"/>
	<path d="M229.4,493.1c-0.7-0.4-1.2-0.9-1.6-1.6c-0.4-0.7-0.6-1.4-0.6-2.3c0-0.8,0.2-1.5,0.6-2.2c0.4-0.7,0.9-1.2,1.5-1.6
		c0.7-0.4,1.4-0.6,2.2-0.6c0.9,0,1.6,0.2,2.2,0.6c0.6,0.4,1.1,0.9,1.4,1.5c0.3,0.6,0.5,1.4,0.5,2.2c0,0.3,0,0.5,0,0.7h-6.3
		c0.1,0.7,0.4,1.2,0.8,1.5c0.4,0.3,0.9,0.5,1.5,0.5c0.5,0,0.9-0.1,1.3-0.3c0.4-0.2,0.6-0.5,0.8-0.9l1.7,0.9
		c-0.9,1.5-2.2,2.2-3.9,2.2C230.8,493.7,230.1,493.5,229.4,493.1z M233.7,488.2c0-0.3-0.1-0.5-0.3-0.8c-0.2-0.3-0.4-0.5-0.7-0.6
		c-0.3-0.2-0.7-0.3-1.1-0.3c-0.5,0-1,0.2-1.3,0.5c-0.4,0.3-0.6,0.7-0.8,1.2H233.7z"/>
</g>
<g>
	<path d="M1380.1,529.3h5.8c1,0,2,0.2,2.9,0.7c0.9,0.4,1.5,1.1,2,1.8c0.5,0.8,0.7,1.7,0.7,2.7c0,1-0.2,1.9-0.7,2.7
		c-0.5,0.8-1.2,1.4-2,1.9c-0.9,0.4-1.8,0.7-2.9,0.7h-2.7v6.1h-3.1V529.3z M1386,536.8c0.8,0,1.4-0.2,1.8-0.7c0.4-0.4,0.7-1,0.7-1.6
		c0-0.6-0.2-1.2-0.7-1.6c-0.4-0.4-1-0.7-1.8-0.7h-2.8v4.5H1386z"/>
	<path d="M1394.5,544.9c-0.7-0.9-1.1-2.1-1.1-3.7v-7.2h3v6.8c0,0.8,0.2,1.4,0.6,1.9c0.4,0.5,0.9,0.7,1.5,0.7c0.9,0,1.5-0.3,2.1-0.9
		c0.5-0.6,0.8-1.4,0.8-2.4v-6h3v11.8h-2.8v-1.5h-0.2c-0.4,0.6-0.8,1-1.5,1.4c-0.6,0.3-1.3,0.5-2.1,0.5
		C1396.3,546.2,1395.2,545.8,1394.5,544.9z"/>
	<path d="M1407.3,529.3h3v16.5h-3V529.3z"/>
	<path d="M1413.3,529.3h3v16.5h-3V529.3z"/>
	<path d="M1428.1,545.1c-1.3-0.8-2.4-1.8-3.1-3.1c-0.8-1.3-1.1-2.8-1.1-4.4s0.4-3.1,1.1-4.4c0.8-1.3,1.8-2.4,3.1-3.1
		c1.3-0.8,2.8-1.1,4.4-1.1c2.5,0,4.6,0.9,6.2,2.7l-2.2,2.1c-1.1-1.2-2.4-1.9-4-1.9c-1,0-2,0.2-2.8,0.7c-0.8,0.5-1.5,1.1-2,2
		c-0.5,0.9-0.7,1.9-0.7,3s0.2,2.1,0.7,3c0.5,0.9,1.2,1.5,2,2c0.8,0.5,1.8,0.7,2.8,0.7c1.7,0,3.2-0.7,4.4-2.2l2.2,2.1
		c-0.8,1-1.8,1.7-2.9,2.3c-1.1,0.5-2.3,0.8-3.7,0.8C1430.9,546.2,1429.4,545.9,1428.1,545.1z"/>
	<path d="M1443.5,545.4c-1-0.5-1.7-1.3-2.2-2.2c-0.5-0.9-0.8-2-0.8-3.2c0-1.2,0.3-2.2,0.8-3.2c0.5-1,1.3-1.7,2.2-2.3
		c1-0.5,2-0.8,3.3-0.8c1.2,0,2.3,0.3,3.2,0.8c1,0.5,1.7,1.3,2.2,2.3c0.5,1,0.8,2,0.8,3.2c0,1.2-0.3,2.3-0.8,3.2
		c-0.5,0.9-1.3,1.7-2.2,2.2c-1,0.5-2,0.8-3.2,0.8C1445.5,546.2,1444.4,546,1443.5,545.4z M1448.4,543c0.5-0.3,0.9-0.7,1.2-1.2
		c0.3-0.5,0.4-1.1,0.4-1.8c0-0.7-0.1-1.3-0.4-1.8c-0.3-0.5-0.7-0.9-1.2-1.2c-0.5-0.3-1-0.4-1.6-0.4c-0.6,0-1.1,0.1-1.6,0.4
		c-0.5,0.3-0.9,0.7-1.2,1.2c-0.3,0.5-0.5,1.1-0.5,1.8c0,0.7,0.2,1.3,0.5,1.8c0.3,0.5,0.7,0.9,1.2,1.2c0.5,0.3,1,0.4,1.6,0.4
		C1447.3,543.4,1447.9,543.3,1448.4,543z"/>
	<path d="M1455.1,534.1h2.8v1.5h0.2c0.4-0.6,0.9-1,1.5-1.4c0.6-0.3,1.3-0.5,2.1-0.5c0.8,0,1.6,0.2,2.2,0.6c0.6,0.4,1.1,0.9,1.3,1.5
		c0.4-0.6,0.9-1.1,1.6-1.5c0.7-0.4,1.5-0.6,2.4-0.6c1.3,0,2.4,0.4,3.1,1.2c0.7,0.8,1.1,1.9,1.1,3.3v7.6h-3v-7c0-0.7-0.2-1.3-0.5-1.7
		c-0.3-0.4-0.8-0.6-1.4-0.6c-0.8,0-1.4,0.3-1.9,0.9c-0.5,0.6-0.7,1.4-0.7,2.5v5.9h-3v-7c0-0.7-0.2-1.3-0.5-1.7
		c-0.4-0.4-0.9-0.6-1.5-0.6c-0.7,0-1.3,0.3-1.8,0.9c-0.5,0.6-0.7,1.4-0.7,2.5v5.9h-3V534.1z"/>
	<path d="M1476.1,534.1h2.8v1.5h0.2c0.4-0.6,0.9-1,1.5-1.4c0.6-0.3,1.3-0.5,2.1-0.5c0.8,0,1.6,0.2,2.2,0.6c0.6,0.4,1.1,0.9,1.3,1.5
		c0.4-0.6,0.9-1.1,1.6-1.5c0.7-0.4,1.5-0.6,2.4-0.6c1.3,0,2.4,0.4,3.1,1.2c0.7,0.8,1.1,1.9,1.1,3.3v7.6h-3v-7c0-0.7-0.2-1.3-0.5-1.7
		c-0.3-0.4-0.8-0.6-1.4-0.6c-0.8,0-1.4,0.3-1.9,0.9c-0.5,0.6-0.7,1.4-0.7,2.5v5.9h-3v-7c0-0.7-0.2-1.3-0.5-1.7
		c-0.4-0.4-0.9-0.6-1.5-0.6c-0.7,0-1.3,0.3-1.8,0.9c-0.5,0.6-0.7,1.4-0.7,2.5v5.9h-3V534.1z"/>
	<path d="M1497.5,532.2c-0.4-0.4-0.6-0.8-0.6-1.4c0-0.5,0.2-1,0.6-1.4c0.4-0.4,0.8-0.6,1.4-0.6c0.5,0,1,0.2,1.4,0.6
		c0.4,0.4,0.6,0.8,0.6,1.4c0,0.5-0.2,1-0.6,1.4c-0.4,0.4-0.8,0.6-1.4,0.6C1498.3,532.8,1497.8,532.6,1497.5,532.2z M1497.3,534.1h3
		v11.8h-3V534.1z"/>
	<path d="M1506.9,546c-0.5-0.2-0.9-0.4-1.2-0.7c-0.7-0.7-1.1-1.7-1.1-3v-5.5h-2.1v-2.6h2.1v-3.3h3v3.3h2.9v2.6h-2.9v5
		c0,0.6,0.1,1.1,0.4,1.3c0.2,0.3,0.6,0.4,1.1,0.4c0.3,0,0.5,0,0.7-0.1c0.2-0.1,0.4-0.2,0.8-0.4v3c-0.7,0.3-1.4,0.4-2.1,0.4
		C1507.9,546.2,1507.4,546.1,1506.9,546z"/>
	<path d="M1514.3,545.4c-0.9-0.6-1.5-1.3-1.9-2.3l2.7-1.2c0.2,0.6,0.6,1,1.1,1.3c0.5,0.3,1,0.4,1.6,0.4c0.6,0,1-0.1,1.4-0.3
		c0.4-0.2,0.6-0.5,0.6-0.9c0-0.4-0.2-0.7-0.5-0.9s-0.8-0.4-1.5-0.5l-1.4-0.3c-1-0.2-1.7-0.6-2.4-1.3c-0.6-0.6-0.9-1.4-0.9-2.3
		c0-0.7,0.2-1.3,0.6-1.8c0.4-0.5,1-1,1.7-1.2c0.7-0.3,1.5-0.4,2.3-0.4c2.4,0,4.1,0.9,4.9,2.6l-2.6,1.1c-0.5-0.8-1.2-1.2-2.2-1.2
		c-0.5,0-0.9,0.1-1.2,0.3c-0.3,0.2-0.5,0.4-0.5,0.7c0,0.6,0.5,1,1.6,1.2l1.7,0.4c1.2,0.3,2.1,0.7,2.6,1.3c0.6,0.6,0.9,1.3,0.9,2.2
		c0,0.8-0.2,1.4-0.7,2c-0.4,0.6-1,1-1.8,1.4c-0.8,0.3-1.6,0.5-2.5,0.5C1516.3,546.2,1515.2,545.9,1514.3,545.4z"/>
</g>
<g>
	<path d="M374.8,146.7h6.8c1.2,0,2.3,0.3,3.2,0.8c0.9,0.5,1.7,1.2,2.2,2.1c0.5,0.9,0.8,1.9,0.8,3c0,1.2-0.4,2.3-1.1,3.2
		c-0.8,0.9-1.7,1.6-2.9,2l0,0.2l5,7.2v0.2h-4l-4.8-7h-1.6v7h-3.5V146.7z M381.5,155.1c0.8,0,1.4-0.2,2-0.7c0.5-0.5,0.8-1.1,0.8-1.8
		c0-0.7-0.2-1.3-0.7-1.8c-0.5-0.5-1.1-0.8-1.9-0.8h-3.3v5.2H381.5z"/>
	<path d="M391.3,146.7h11.8v3.3h-8.3v4.3h7.5v3.3h-7.5v4.3h8.3v3.3h-11.8V146.7z"/>
	<path d="M408,164.3c-1.2-0.9-2.1-2.2-2.6-3.9l3.3-1.3c0.3,1,0.7,1.8,1.3,2.4c0.6,0.6,1.4,0.9,2.3,0.9c0.8,0,1.4-0.2,2-0.6
		c0.6-0.4,0.8-0.9,0.8-1.6c0-0.7-0.3-1.3-0.8-1.7c-0.5-0.4-1.5-0.9-2.8-1.4l-1.1-0.4c-1.2-0.4-2.2-1.1-3.1-1.9
		c-0.9-0.9-1.3-1.9-1.3-3.2c0-1,0.3-1.9,0.8-2.7c0.5-0.8,1.2-1.4,2.1-1.9c0.9-0.5,2-0.7,3.1-0.7c1.7,0,3,0.4,4,1.2
		c1,0.8,1.6,1.7,2,2.8l-3.1,1.3c-0.2-0.6-0.5-1.1-1-1.4c-0.5-0.4-1.1-0.6-1.8-0.6c-0.8,0-1.4,0.2-1.9,0.5c-0.5,0.4-0.7,0.8-0.7,1.4
		c0,0.6,0.2,1,0.7,1.4c0.5,0.4,1.2,0.8,2.3,1.1l1.2,0.4c1.6,0.6,2.9,1.3,3.7,2.2c0.9,0.9,1.3,2.1,1.3,3.6c0,1.2-0.3,2.2-0.9,3.1
		c-0.6,0.8-1.4,1.5-2.4,1.9c-1,0.4-2,0.6-3,0.6C410.7,165.7,409.3,165.2,408,164.3z"/>
	<path d="M425.6,150h-5.2v-3.3h13.9v3.3h-5.2v15.3h-3.5V150z"/>
	<path d="M447.6,146.7h4l7,18.6h-3.9l-1.6-4.5h-7.1l-1.6,4.5h-3.9L447.6,146.7z M452.1,157.6l-1.6-4.7l-0.7-2.2h-0.2l-0.7,2.2
		l-1.7,4.7H452.1z"/>
	<path d="M461.2,146.7h6.6c1.2,0,2.3,0.2,3.2,0.7c1,0.5,1.7,1.2,2.3,2.1c0.6,0.9,0.8,1.9,0.8,3.1c0,1.1-0.3,2.2-0.8,3.1
		c-0.6,0.9-1.3,1.6-2.3,2.1c-1,0.5-2,0.7-3.2,0.7h-3v6.8h-3.5V146.7z M467.8,155.1c0.9,0,1.5-0.3,2-0.8s0.7-1.1,0.7-1.8
		c0-0.7-0.2-1.3-0.7-1.8c-0.5-0.5-1.2-0.7-2-0.7h-3.1v5.1H467.8z"/>
	<path d="M477.1,146.7h3.5v18.6h-3.5V146.7z"/>
</g>
<g>
	<path class="st0" d="M1028.8,343.7h-7.2c-0.3-12.2-1-23.6-2.1-34.3h-0.1l-11,34.3h-5.5l-10.9-34.3H992c-0.8,10.3-1.3,21.7-1.5,34.3
		h-6.6c0.4-15.3,1.5-29.6,3.2-43h8.9l10.4,31.6h0.1l10.5-31.6h8.5C1027.4,316.4,1028.5,330.7,1028.8,343.7"/>
	<path class="st0" d="M1060,312c-2.9,15.9-6.8,27.5-11.6,34.7c-3.7,5.6-7.8,8.3-12.3,8.3c-1.2,0-2.7-0.4-4.4-1.1v-3.8
		c0.9,0.1,1.8,0.2,3,0.2c2.1,0,3.8-0.6,5-1.7c1.5-1.4,2.3-3,2.3-4.7c0-1.2-0.6-3.6-1.8-7.3l-7.9-24.5h7.1l5.7,18.3
		c1.3,4.2,1.8,7.1,1.6,8.7c3.1-8.3,5.3-17.3,6.5-27.1H1060z"/>
	<polygon class="st1" points="1155.9,343.7 1135.4,343.7 1135.4,300.7 1142.3,300.7 1142.3,338.4 1155.9,338.4 	"/>
	<path class="st2" d="M1130,344.8l-7.9-3.9c0.7-0.6,1.4-1.2,2-1.9c3.4-3.9,5-9.8,5-17.5c0-14.2-5.6-21.3-16.8-21.3
		c-5.5,0-9.7,1.8-12.8,5.4c-3.4,4-5,9.8-5,17.5c0,7.6,1.5,13.1,4.5,16.6c2.7,3.2,6.8,4.8,12.3,4.8c2,0,3.9-0.3,5.6-0.8l10.3,6
		L1130,344.8z M1104.4,335.1c-1.7-2.8-2.6-7.3-2.6-13.5c0-10.8,3.3-16.3,9.9-16.3c3.4,0,6,1.3,7.6,3.9c1.7,2.8,2.6,7.3,2.6,13.4
		c0,10.9-3.3,16.4-9.9,16.4C1108.6,339,1106,337.7,1104.4,335.1"/>
	<path class="st1" d="M1091.6,331.8c0,3.6-1.3,6.6-4,9c-2.7,2.3-6.3,3.5-10.8,3.5c-4.2,0-8.3-1.3-12.2-4l1.8-3.7
		c3.4,1.7,6.5,2.5,9.2,2.5c2.6,0,4.6-0.6,6.1-1.7c1.5-1.1,2.3-2.7,2.3-4.8c0-2.6-1.8-4.7-5-6.6c-3-1.7-9-5.1-9-5.1
		c-3.3-2.4-4.9-4.9-4.9-9.2c0-3.5,1.2-6.3,3.7-8.4c2.4-2.1,5.6-3.2,9.5-3.2c4,0,7.6,1.1,10.9,3.2l-1.7,3.7c-2.8-1.2-5.6-1.8-8.3-1.8
		c-2.2,0-3.9,0.5-5.1,1.6c-1.2,1.1-1.9,2.4-1.9,4.1c0,2.5,1.8,4.8,5.2,6.6c3.1,1.7,9.2,5.2,9.2,5.2
		C1089.9,325.1,1091.6,327.6,1091.6,331.8"/>
	<path class="st3" d="M1164.5,286.3c-4.2-0.1-7.4,0.3-10.1,1.5c-0.8,0.3-2,0.3-2.1,1.3c0.4,0.4,0.5,1.1,0.8,1.7
		c0.6,1,1.7,2.4,2.7,3.2c1.1,0.8,2.2,1.7,3.3,2.4c2,1.3,4.3,2,6.3,3.2c1.1,0.7,2.3,1.7,3.4,2.4c0.6,0.4,0.9,1.1,1.7,1.3v-0.2
		c-0.4-0.5-0.5-1.1-0.8-1.7c-0.5-0.5-1-1-1.6-1.5c-1.5-2-3.4-3.8-5.4-5.2c-1.7-1.1-5.3-2.7-6-4.6c0,0-0.1-0.1-0.1-0.1
		c1.1-0.1,2.5-0.5,3.6-0.8c1.8-0.5,3.4-0.4,5.2-0.8c0.8-0.2,1.7-0.5,2.5-0.7v-0.5c-0.9-0.9-1.6-2.2-2.6-3.1
		c-2.6-2.3-5.6-4.5-8.6-6.4c-1.6-1-3.7-1.7-5.4-2.6c-0.6-0.3-1.7-0.5-2-1c-0.9-1.1-1.5-2.6-2.1-4c-1.5-2.9-3-6-4.3-9
		c-0.9-2-1.5-4.1-2.7-5.9c-5.4-8.8-11.2-14.2-20.1-19.4c-1.9-1.1-4.2-1.6-6.7-2.1c-1.3-0.1-2.6-0.2-3.9-0.2
		c-0.8-0.4-1.7-1.4-2.4-1.8c-3-1.9-10.6-5.9-12.8-0.6c-1.4,3.4,2.1,6.7,3.3,8.4c0.9,1.2,2,2.5,2.6,3.9c0.4,0.9,0.5,1.8,0.8,2.8
		c0.8,2.3,1.6,4.8,2.7,7c0.6,1.1,1.2,2.2,1.9,3.2c0.4,0.6,1.1,0.8,1.3,1.8c-0.7,1-0.8,2.6-1.2,3.9c-1.9,5.9-1.1,13.1,1.5,17.5
		c0.8,1.3,2.8,4.2,5.5,3.1c2.3-0.9,1.8-3.9,2.5-6.5c0.2-0.6,0.1-1,0.4-1.5v0.1c0.7,1.5,1.5,2.9,2.1,4.3c1.6,2.5,4.4,5.2,6.8,7
		c1.2,0.9,2.2,2.5,3.8,3.1v-0.2h-0.1c-0.3-0.5-0.8-0.7-1.2-1c-0.9-0.9-2-2.1-2.7-3.1c-2.2-2.9-4.1-6.1-5.8-9.5
		c-0.8-1.6-1.6-3.4-2.2-5c-0.3-0.6-0.3-1.6-0.8-1.9c-0.8,1.1-1.9,2.1-2.5,3.5c-1,2.2-1.1,5-1.5,7.9c-0.2,0.1-0.1,0-0.2,0.1
		c-1.7-0.4-2.2-2.1-2.9-3.6c-1.6-3.7-1.8-9.6-0.5-13.9c0.4-1.1,1.9-4.5,1.3-5.6c-0.3-1-1.4-1.6-1.9-2.3c-0.7-1-1.4-2.2-1.9-3.3
		c-1.2-2.9-1.9-6.1-3.2-9c-0.6-1.4-1.7-2.8-2.6-4c-1-1.4-2.1-2.4-2.9-4.1c-0.3-0.6-0.6-1.5-0.2-2.1c0.1-0.4,0.3-0.6,0.7-0.7
		c0.7-0.6,2.6,0.2,3.3,0.5c1.9,0.8,3.5,1.5,5.1,2.6c0.7,0.5,1.5,1.5,2.4,1.8h1.1c1.7,0.4,3.5,0.1,5.1,0.6c2.8,0.9,5.2,2.2,7.5,3.6
		c6.8,4.3,12.4,10.4,16.2,17.8c0.6,1.2,0.9,2.3,1.5,3.5c1.1,2.6,2.4,5.2,3.5,7.6c1.1,2.4,2.1,4.9,3.7,7c0.8,1.1,3.9,1.7,5.3,2.2
		c1,0.5,2.7,0.9,3.6,1.5c1.8,1.1,3.5,2.3,5.2,3.5C1161.7,284,1164.3,285.3,1164.5,286.3"/>
	<path class="st1" d="M1169.4,343.7h1.1v-5.3h-1.6l-1.3,3.6l-1.4-3.6h-1.6v5.3h1v-4h0.1l1.5,4h0.8l1.5-4V343.7z M1160.8,343.7h1.1
		v-4.4h1.5v-0.9h-4.2v0.9h1.6V343.7z"/>
</g>
<g>
	
		<radialGradient id="SVGID_1_" cx="618.595" cy="170.87" r="99.8509" gradientTransform="matrix(1 0 0 1 26.5198 -9.3071)" gradientUnits="userSpaceOnUse">
		<stop  offset="0" style="stop-color:#FFFFFF"/>
		<stop  offset="0.5" style="stop-color:#4D6998"/>
		<stop  offset="1" style="stop-color:#1D1D1B"/>
	</radialGradient>
	<ellipse class="st4" cx="675.5" cy="187.5" rx="76" ry="40"/>
	<ellipse class="st5" cx="675.5" cy="187.5" rx="73.1" ry="37"/>
	<g>
		<path class="st6" d="M690.3,199.5c0,0,3.6-18.7,3.6-18.7c0.8-4.2,0.1-7.4-2-9.3c-2.1-1.9-5.6-2.9-10.9-2.9h-6.3l1.8-9.2
			c0.1-0.3,0-0.7-0.2-1c-0.2-0.3-0.6-0.4-0.9-0.4h-8.7c-0.6,0-1.1,0.4-1.2,1l-3.8,19.8c-0.4-2.2-1.2-4.1-2.6-5.7
			c-2.5-2.9-6.6-4.4-11.9-4.4h-16.8c-0.6,0-1.1,0.4-1.2,1l-7.8,40.1c-0.1,0.3,0,0.7,0.2,1c0.2,0.3,0.6,0.4,0.9,0.4h8.7
			c0.6,0,1.1-0.4,1.2-1l1.9-9.7h6.5c3.4,0,6.3-0.4,8.5-1.1c2.3-0.7,4.4-2,6.2-3.7c1.5-1.4,2.7-2.9,3.7-4.6l-1.6,8
			c-0.1,0.3,0,0.7,0.2,1c0.2,0.3,0.6,0.4,0.9,0.4h8.7c0.6,0,1.1-0.4,1.2-1l4.3-22h5.9c2.5,0,3.3,0.5,3.5,0.7
			c0.2,0.2,0.6,0.9,0.1,3.1l-3.4,17.7c-0.1,0.3,0,0.7,0.2,1c0.2,0.3,0.6,0.4,0.9,0.4h8.8C689.7,200.4,690.2,200,690.3,199.5z
			 M650.1,184.1c-0.5,2.8-1.6,4.8-3,5.9c-1.5,1.2-3.9,1.7-7.1,1.7h-3.9l2.8-14.4h5c3.7,0,5.2,0.8,5.8,1.4
			C650.5,179.7,650.6,181.5,650.1,184.1z"/>
		<path class="st6" d="M727.3,173c-2.5-2.9-6.6-4.4-11.9-4.4h-16.8c-0.6,0-1.1,0.4-1.2,1l-7.8,40.1c-0.1,0.3,0,0.7,0.2,1
			c0.2,0.3,0.6,0.4,0.9,0.4h8.7c0.6,0,1.1-0.4,1.2-1l1.9-9.7h6.5c3.4,0,6.3-0.4,8.5-1.1c2.3-0.7,4.4-2,6.2-3.7
			c1.5-1.4,2.8-3,3.8-4.7c1-1.7,1.7-3.6,2.1-5.7C730.7,180,729.9,175.9,727.3,173z M718.3,184.1c-0.5,2.8-1.6,4.8-3,5.9
			c-1.5,1.2-3.9,1.7-7.1,1.7h-3.9l2.8-14.4h5c3.7,0,5.2,0.8,5.8,1.4C718.6,179.7,718.8,181.5,718.3,184.1z"/>
	</g>
	<g>
		<path class="st7" d="M643.9,176.1c3.3,0,5.5,0.6,6.6,1.8c1.1,1.2,1.4,3.3,0.8,6.3c-0.6,3.1-1.8,5.3-3.5,6.6c-1.7,1.3-4.3,2-7.9,2
			h-5.3l3.3-16.8H643.9z M622.6,209.9h8.7l2.1-10.7h7.5c3.3,0,6-0.3,8.1-1c2.1-0.7,4.1-1.9,5.8-3.5c1.5-1.3,2.6-2.8,3.6-4.5
			c0.9-1.6,1.5-3.4,1.9-5.4c0.9-4.8,0.2-8.5-2.1-11.1c-2.3-2.7-6-4-11.1-4h-16.8L622.6,209.9z"/>
		<path class="st7" d="M666.7,159.2h8.7l-2.1,10.7h7.7c4.9,0,8.2,0.8,10,2.5c1.8,1.7,2.4,4.4,1.7,8.2l-3.6,18.7h-8.8l3.4-17.7
			c0.4-2,0.2-3.4-0.4-4.1c-0.7-0.7-2.1-1.1-4.3-1.1h-6.9l-4.5,23H659L666.7,159.2z"/>
		<path class="st7" d="M712,176.1c3.3,0,5.5,0.6,6.6,1.8c1.1,1.2,1.4,3.3,0.8,6.3c-0.6,3.1-1.8,5.3-3.5,6.6c-1.7,1.3-4.3,2-7.9,2
			h-5.3l3.3-16.8H712z M690.8,209.9h8.7l2.1-10.7h7.5c3.3,0,6-0.3,8.1-1c2.1-0.7,4.1-1.9,5.8-3.5c1.5-1.3,2.6-2.8,3.6-4.5
			c0.9-1.6,1.5-3.4,1.9-5.4c0.9-4.8,0.2-8.5-2.1-11.1c-2.3-2.7-6-4-11.1-4h-16.8L690.8,209.9z"/>
	</g>
</g>
<g>
	<g>
		<path class="st8" d="M1524.7,168.3c-25.5,0-46.1,20.7-46.1,46.1c0,20.4,13.2,37.7,31.6,43.8c2.3,0.4,3.2-1,3.2-2.2
			c0-1.1,0-4.7-0.1-8.6c-12.8,2.8-15.5-5.4-15.5-5.4c-2.1-5.3-5.1-6.8-5.1-6.8c-4.2-2.9,0.3-2.8,0.3-2.8c4.6,0.3,7.1,4.8,7.1,4.8
			c4.1,7.1,10.8,5,13.4,3.8c0.4-3,1.6-5,2.9-6.2c-10.2-1.2-21-5.1-21-22.8c0-5,1.8-9.2,4.8-12.4c-0.5-1.2-2.1-5.9,0.4-12.2
			c0,0,3.9-1.2,12.7,4.7c3.7-1,7.6-1.5,11.5-1.6c3.9,0,7.9,0.5,11.6,1.6c8.8-6,12.7-4.7,12.7-4.7c2.5,6.4,0.9,11,0.5,12.2
			c3,3.2,4.7,7.3,4.7,12.4c0,17.7-10.8,21.6-21.1,22.8c1.7,1.4,3.1,4.2,3.1,8.5c0,6.2-0.1,11.1-0.1,12.7c0,1.2,0.8,2.7,3.2,2.2
			c18.3-6.1,31.5-23.4,31.5-43.8C1570.8,188.9,1550.2,168.3,1524.7,168.3z"/>
		<path class="st9" d="M1496,234.5c-0.1,0.2-0.5,0.3-0.8,0.1c-0.3-0.2-0.5-0.5-0.4-0.7c0.1-0.2,0.5-0.3,0.8-0.1
			C1496,234,1496.1,234.3,1496,234.5L1496,234.5z M1495.5,234.1"/>
		<path class="st9" d="M1497.9,236.6c-0.2,0.2-0.7,0.1-0.9-0.2c-0.3-0.3-0.4-0.8-0.1-1c0.2-0.2,0.6-0.1,0.9,0.2
			C1498.1,236,1498.1,236.4,1497.9,236.6L1497.9,236.6z M1497.5,236.1"/>
		<path class="st9" d="M1499.7,239.3c-0.3,0.2-0.7,0-1-0.4c-0.3-0.4-0.3-0.9,0-1.1c0.3-0.2,0.7,0,1,0.4
			C1500,238.6,1500,239.1,1499.7,239.3L1499.7,239.3z M1499.7,239.3"/>
		<path class="st9" d="M1502.2,241.8c-0.3,0.3-0.8,0.2-1.2-0.2c-0.4-0.4-0.5-0.9-0.3-1.2c0.3-0.3,0.8-0.2,1.2,0.2
			C1502.4,241,1502.5,241.6,1502.2,241.8L1502.2,241.8z M1502.2,241.8"/>
		<path class="st9" d="M1505.6,243.3c-0.1,0.4-0.6,0.5-1.2,0.4c-0.5-0.2-0.9-0.6-0.8-0.9c0.1-0.4,0.6-0.5,1.2-0.4
			C1505.4,242.5,1505.8,243,1505.6,243.3L1505.6,243.3z M1505.6,243.3"/>
		<path class="st9" d="M1509.4,243.6c0,0.4-0.4,0.7-1,0.7c-0.6,0-1-0.3-1-0.7c0-0.4,0.4-0.7,1-0.7
			C1509,242.9,1509.4,243.2,1509.4,243.6L1509.4,243.6z M1509.4,243.6"/>
		<path class="st9" d="M1512.9,243c0.1,0.4-0.3,0.8-0.9,0.9c-0.5,0.1-1-0.1-1.1-0.5c-0.1-0.4,0.3-0.8,0.9-0.9
			C1512.4,242.4,1512.9,242.6,1512.9,243L1512.9,243z M1512.9,243"/>
	</g>
	<g>
		<path class="st10" d="M1633.3,209.4h-16.9c-0.4,0-0.8,0.4-0.8,0.8v8.3c0,0.4,0.4,0.8,0.8,0.8h6.6v10.3c0,0-1.5,0.5-5.6,0.5
			c-4.8,0-11.6-1.8-11.6-16.6c0-14.9,7-16.8,13.6-16.8c5.7,0,8.2,1,9.7,1.5c0.5,0.2,0.9-0.3,0.9-0.8l1.9-8c0-0.2-0.1-0.5-0.3-0.6
			c-0.6-0.5-4.5-2.6-14.3-2.6c-11.3,0-22.9,4.8-22.9,27.9c0,23.1,13.3,26.5,24.4,26.5c9.3,0,14.9-4,14.9-4c0.2-0.1,0.3-0.5,0.3-0.6
			v-25.8C1634.1,209.7,1633.8,209.4,1633.3,209.4z"/>
		<path class="st10" d="M1720.5,188.8c0-0.4-0.3-0.8-0.8-0.8h-9.5c-0.4,0-0.8,0.4-0.8,0.8c0,0,0,18.4,0,18.4h-14.8v-18.4
			c0-0.4-0.4-0.8-0.8-0.8h-9.5c-0.4,0-0.8,0.4-0.8,0.8v49.8c0,0.4,0.4,0.8,0.8,0.8h9.5c0.4,0,0.8-0.4,0.8-0.8v-21.3h14.8
			c0,0,0,21.3,0,21.3c0,0.4,0.4,0.8,0.8,0.8h9.5c0.4,0,0.8-0.4,0.8-0.8V188.8z"/>
		<g>
			<g>
				<path class="st10" d="M1651.3,195.4c0-3.4-2.8-6.2-6.1-6.2c-3.4,0-6.1,2.8-6.1,6.2c0,3.4,2.8,6.2,6.1,6.2
					C1648.6,201.6,1651.3,198.8,1651.3,195.4z"/>
				<path class="st10" d="M1650.6,228.2c0-1.3,0-23,0-23c0-0.4-0.4-0.8-0.8-0.8h-9.5c-0.4,0-0.8,0.4-0.8,0.9c0,0,0,27.7,0,33
					c0,1,0.6,1.3,1.4,1.3c0,0,4.1,0,8.6,0c0.9,0,1.2-0.5,1.2-1.3C1650.6,236.4,1650.6,229.5,1650.6,228.2z"/>
			</g>
		</g>
		<path class="st10" d="M1756.7,204.4h-9.5c-0.4,0-0.8,0.4-0.8,0.8v24.4c0,0-2.4,1.8-5.8,1.8c-3.4,0-4.3-1.5-4.3-4.9
			c0-3.3,0-21.3,0-21.3c0-0.4-0.4-0.8-0.8-0.8h-9.6c-0.4,0-0.8,0.4-0.8,0.8c0,0,0,13,0,22.9c0,9.9,5.5,12.3,13.1,12.3
			c6.2,0,11.3-3.4,11.3-3.4s0.2,1.8,0.3,2c0.1,0.2,0.4,0.4,0.7,0.4l6.1,0c0.4,0,0.8-0.4,0.8-0.8l0-33.5
			C1757.5,204.8,1757.2,204.4,1756.7,204.4z"/>
		<path class="st10" d="M1782.6,203.3c-5.4,0-9,2.4-9,2.4v-16.9c0-0.4-0.4-0.8-0.8-0.8h-9.6c-0.4,0-0.8,0.4-0.8,0.8v49.8
			c0,0.4,0.4,0.8,0.8,0.8c0,0,6.6,0,6.6,0c0.3,0,0.5-0.2,0.7-0.4c0.2-0.3,0.4-2.3,0.4-2.3s3.9,3.7,11.3,3.7
			c8.7,0,13.7-4.4,13.7-19.8C1795.9,205.3,1787.9,203.3,1782.6,203.3z M1778.8,231.4c-3.3-0.1-5.5-1.6-5.5-1.6V214
			c0,0,2.2-1.3,4.9-1.6c3.4-0.3,6.7,0.7,6.7,8.8C1784.9,229.8,1783.4,231.5,1778.8,231.4z"/>
		<path class="st10" d="M1678,204.4h-7.1c0,0,0-9.4,0-9.4c0-0.4-0.2-0.5-0.6-0.5h-9.7c-0.4,0-0.6,0.2-0.6,0.5v9.8
			c0,0-4.9,1.2-5.2,1.3c-0.3,0.1-0.6,0.4-0.6,0.8v6.1c0,0.4,0.4,0.8,0.8,0.8h5c0,0,0,6.4,0,14.7c0,11,7.7,12,12.9,12
			c2.4,0,5.2-0.8,5.7-0.9c0.3-0.1,0.4-0.4,0.4-0.7l0-6.7c0-0.4-0.4-0.8-0.8-0.8c-0.4,0-1.5,0.2-2.6,0.2c-3.5,0-4.7-1.6-4.7-3.7
			c0-2.1,0-14,0-14h7.1c0.4,0,0.8-0.4,0.8-0.8v-7.7C1678.8,204.7,1678.4,204.4,1678,204.4z"/>
	</g>
</g>
<g id="layer1" transform="matrix(0.46881528,0,0,0.46881528,-33.902175,-218.82945)">
	<g id="g3169" transform="matrix(0.22594137,0,0,0.22594137,72.15641,466.78864)">
		
			<linearGradient id="path3178_1_" gradientUnits="userSpaceOnUse" x1="-84263.3047" y1="31816.1133" x2="-84101.1797" y2="32005.6895" gradientTransform="matrix(3.681945e-02 -7.896055e-02 7.896055e-02 3.681945e-02 4214.2368 -4798.7319)">
			<stop  offset="0" style="stop-color:#F59723"/>
			<stop  offset="0.3123" style="stop-color:#F69822"/>
			<stop  offset="0.8383" style="stop-color:#E87726"/>
		</linearGradient>
		<path id="path3178" class="st11" d="M3670,2950.5c-14.8,8.7-39.4,33.5-68.7,69.4l26.9,50.9c19-27,38.2-51.5,57.6-72.3
			c1.5-1.6,2.2-2.4,2.2-2.4c-0.7,0.8-1.5,1.6-2.2,2.4c-6.3,6.9-25.3,29.2-54.1,73.3c27.7-1.4,70.2-7,104.9-12.9
			c10.4-57.9-10.1-84.3-10.1-84.3S3700.5,2932.6,3670,2950.5z"/>
		<path id="path3180" class="st12" d="M3624.3,3241.1c0.2-0.1,0.4-0.1,0.6-0.1l-3.9,0.4c-0.2,0.1-0.4,0.2-0.7,0.3
			C3621.7,3241.5,3623,3241.2,3624.3,3241.1z"/>
		<path id="path3182" class="st12" d="M3596.7,3332.3c-2.2,0.5-4.4,0.9-6.7,1.3C3592.3,3333.2,3594.6,3332.7,3596.7,3332.3z"/>
		<path id="path3184" class="st12" d="M3409.6,3536.9c0.3-0.7,0.5-1.5,0.8-2.2c6-15.7,11.9-30.9,17.6-45.8
			c6.5-16.7,12.9-32.8,19.4-48.4c6.7-16.4,13.4-32.4,19.9-47.8c6.8-16.1,13.6-31.7,20.3-46.7c5.4-12.2,10.7-24,16-35.4
			c1.7-3.8,3.5-7.6,5.2-11.3c3.4-7.4,6.8-14.6,10.2-21.7c3.1-6.5,6.2-12.9,9.3-19.2c1-2.1,2-4.2,3.1-6.2c0.2-0.3,0.3-0.7,0.5-1
			l-3.3,0.3l-2.6-5.2c-0.3,0.5-0.5,1-0.8,1.5c-4.7,9.5-9.5,18.9-14.1,28.5c-2.7,5.6-5.4,11.1-8,16.7c-7.4,15.5-14.6,31.1-21.7,46.8
			c-7.2,15.9-14.3,31.8-21.3,47.9c-6.8,15.7-13.5,31.5-20,47.1c-6.5,15.7-12.9,31.3-19.1,46.8c-6.5,16.2-12.8,32.2-18.9,48.1
			c-1.4,3.6-2.7,7.2-4.2,10.7c-4.9,12.8-9.7,25.5-14.4,37.9l4.2,8.2l3.7-0.4c0.1-0.4,0.3-0.7,0.4-1.1
			C3397.8,3568.5,3403.7,3552.5,3409.6,3536.9L3409.6,3536.9z"/>
		<path id="path3188" class="st13" d="M3579.4,3378.2c-3.4,0.6-6.9,1.3-10.6,1.9c0,0-0.1,0-0.1,0.1c1.9-0.3,3.7-0.5,5.5-0.8
			C3575.9,3379,3577.6,3378.6,3579.4,3378.2z"/>
		<path id="path3190" class="st14" d="M3579.4,3378.2c-3.4,0.6-6.9,1.3-10.6,1.9c0,0-0.1,0-0.1,0.1c1.9-0.3,3.7-0.5,5.5-0.8
			C3575.9,3379,3577.6,3378.6,3579.4,3378.2z"/>
		<path id="path3192" class="st13" d="M3588.4,3333.7C3588.4,3333.7,3588.4,3333.8,3588.4,3333.7
			C3588.3,3333.7,3588.3,3333.7,3588.4,3333.7c0.5,0,1.1-0.1,1.6-0.2c2.3-0.3,4.5-0.7,6.7-1.3
			C3594,3332.7,3591.3,3333.2,3588.4,3333.7z"/>
		<path id="path3194" class="st14" d="M3588.4,3333.7C3588.4,3333.7,3588.4,3333.8,3588.4,3333.7
			C3588.3,3333.7,3588.3,3333.7,3588.4,3333.7c0.5,0,1.1-0.1,1.6-0.2c2.3-0.3,4.5-0.7,6.7-1.3
			C3594,3332.7,3591.3,3333.2,3588.4,3333.7z"/>
		
			<linearGradient id="path3205_1_" gradientUnits="userSpaceOnUse" x1="-95591.5469" y1="31620.1719" x2="-94434.875" y2="31620.1719" gradientTransform="matrix(3.681945e-02 -7.896055e-02 7.896055e-02 3.681945e-02 4214.2368 -4798.7319)">
			<stop  offset="0.3233" style="stop-color:#9C2063"/>
			<stop  offset="0.6302" style="stop-color:#C82037"/>
			<stop  offset="0.7514" style="stop-color:#CC2135"/>
			<stop  offset="1" style="stop-color:#E87726"/>
		</linearGradient>
		<path id="path3205" class="st15" d="M3548.7,3202.4c8.2-15.4,16.5-30.3,24.9-44.9c8.7-15.2,17.5-29.8,26.4-44
			c0.5-0.8,1.1-1.7,1.6-2.5c8.8-13.9,17.7-27.4,26.6-40.2l-26.9-50.9c-2,2.5-4,5-6.1,7.6c-7.8,9.7-15.8,20.1-24.1,31.2
			c-9.3,12.5-18.9,25.8-28.7,39.8c-9,12.9-18.1,26.4-27.3,40.4c-7.8,11.9-15.6,24.1-23.3,36.7c-0.3,0.4-0.5,0.9-0.8,1.4l35.1,69.4
			C3533.4,3231.5,3541,3216.8,3548.7,3202.4z"/>
		
			<linearGradient id="path3216_1_" gradientUnits="userSpaceOnUse" x1="-94273.3828" y1="32715.2832" x2="-93584.1172" y2="32715.2832" gradientTransform="matrix(3.681945e-02 -7.896055e-02 7.896055e-02 3.681945e-02 4214.2368 -4798.7319)">
			<stop  offset="0" style="stop-color:#282661"/>
			<stop  offset="9.548389e-02" style="stop-color:#662E8C"/>
			<stop  offset="0.7882" style="stop-color:#9E2064"/>
			<stop  offset="0.9487" style="stop-color:#CC2032"/>
		</linearGradient>
		<path id="path3216" class="st16" d="M3388.7,3593.2c-4.6,12.7-9.3,25.8-14,39.1c-0.1,0.2-0.1,0.4-0.2,0.5c-0.7,1.9-1.4,3.8-2,5.6
			c-3.2,9-5.9,17-12.2,35.3c10.3,4.7,18.6,17.2,26.5,31.2c-0.8-14.6-6.8-28.3-18.4-38.9c51,2.3,94.9-10.6,117.6-47.9
			c2-3.3,3.9-6.8,5.6-10.5c-10.3,13.1-23.2,18.6-47.3,17.3c-0.1,0-0.1,0.1-0.2,0.1c0.1,0,0.1-0.1,0.2-0.1
			c35.5-15.9,53.3-31.1,69.1-56.4c3.7-6,7.4-12.5,11.1-19.8c-31,31.8-66.9,40.9-104.8,34l-28.4,3.1
			C3390.5,3588.4,3389.6,3590.8,3388.7,3593.2z"/>
		
			<linearGradient id="path3227_1_" gradientUnits="userSpaceOnUse" x1="-94978.2344" y1="31517.5664" x2="-93821.5625" y2="31517.5664" gradientTransform="matrix(3.681945e-02 -7.896055e-02 7.896055e-02 3.681945e-02 4214.2368 -4798.7319)">
			<stop  offset="0.3233" style="stop-color:#9C2063"/>
			<stop  offset="0.6302" style="stop-color:#C82037"/>
			<stop  offset="0.7514" style="stop-color:#CC2135"/>
			<stop  offset="1" style="stop-color:#E87726"/>
		</linearGradient>
		<path id="path3227" class="st17" d="M3402,3529.6c6.1-15.8,12.5-31.9,18.9-48.1c6.2-15.5,12.6-31.1,19.1-46.8
			c6.6-15.6,13.2-31.4,20-47.1c6.9-16,14-32,21.3-47.9c7.2-15.7,14.4-31.4,21.7-46.8c2.6-5.6,5.4-11.1,8-16.7
			c4.6-9.6,9.3-19.1,14.1-28.5c0.3-0.5,0.5-1,0.8-1.5l-35.1-69.4c-0.5,0.9-1.1,1.9-1.7,2.8c-8.2,13.4-16.3,27-24.3,41
			c-8.1,14.1-16,28.5-23.8,43c-6.5,12.3-12.9,24.6-19.2,37.2c-1.3,2.5-2.5,5.1-3.7,7.6c-7.6,15.8-14.5,30.9-20.8,45.6
			c-7.1,16.6-13.3,32.4-18.7,47.4c-3.6,9.9-6.8,19.4-9.8,28.6c-2.5,7.8-4.8,15.7-7,23.5c-5.2,18.4-9.8,36.7-13.5,55l35.3,69.7
			c4.6-12.5,9.5-25.1,14.4-37.9C3399.3,3536.7,3400.6,3533.1,3402,3529.6z"/>
		
			<linearGradient id="path3238_1_" gradientUnits="userSpaceOnUse" x1="-94181.8438" y1="31666.0449" x2="-93573.9766" y2="31666.0449" gradientTransform="matrix(3.681945e-02 -7.896055e-02 7.896055e-02 3.681945e-02 4214.2368 -4798.7319)">
			<stop  offset="0" style="stop-color:#282661"/>
			<stop  offset="9.548389e-02" style="stop-color:#662E8C"/>
			<stop  offset="0.7882" style="stop-color:#9E2064"/>
			<stop  offset="0.9487" style="stop-color:#CC2032"/>
		</linearGradient>
		<path id="path3238" class="st18" d="M3347.7,3511c-4.4,22.3-7.6,44.5-9.2,66.5c-0.1,0.8-0.1,1.5-0.2,2.3
			c-11-17.6-40.5-34.9-40.4-34.7c21.1,30.6,37.1,61,39.5,90.8c-11.3,2.3-26.8-1-44.6-7.6c18.6,17.2,32.6,21.9,38.1,23.2
			c-17.2,1.1-35,12.8-52.9,26.4c26.3-10.7,47.5-15,62.7-11.5c-24.1,68.3-48.3,143.7-72.5,223.8c7.4-2.2,11.9-7.2,14.3-13.9
			c4.3-14.5,32.9-109.6,77.7-234.6c1.3-3.6,2.6-7.2,3.9-10.7c0.3-1,0.7-2,1.1-3c4.7-13.1,9.7-26.5,14.7-40.2
			c1.1-3.1,2.3-6.2,3.5-9.3c0-0.1,0.1-0.1,0.1-0.2l-35.3-69.7C3348.1,3509.4,3347.9,3510.2,3347.7,3511z"/>
		
			<linearGradient id="path3249_1_" gradientUnits="userSpaceOnUse" x1="-94978.2344" y1="32647.9375" x2="-93821.5625" y2="32647.9375" gradientTransform="matrix(3.681945e-02 -7.896055e-02 7.896055e-02 3.681945e-02 4214.2368 -4798.7319)">
			<stop  offset="0.3233" style="stop-color:#9C2063"/>
			<stop  offset="0.6302" style="stop-color:#C82037"/>
			<stop  offset="0.7514" style="stop-color:#CC2135"/>
			<stop  offset="1" style="stop-color:#E87726"/>
		</linearGradient>
		<path id="path3249" class="st19" d="M3531.4,3252.2c-1,2.1-2,4.2-3.1,6.2c-3.1,6.3-6.1,12.7-9.3,19.2c-3.4,7.1-6.8,14.3-10.2,21.7
			c-1.7,3.7-3.5,7.5-5.2,11.3c-5.2,11.4-10.5,23.2-16,35.4c-6.6,14.9-13.4,30.5-20.3,46.7c-6.5,15.4-13.2,31.3-19.9,47.8
			c-6.4,15.6-12.8,31.8-19.4,48.4c-5.8,14.8-11.7,30.1-17.6,45.8c-0.3,0.7-0.5,1.5-0.8,2.2c-5.9,15.6-11.9,31.6-17.8,48
			c-0.1,0.4-0.3,0.7-0.4,1.1l28.4-3.1c-0.5-0.1-1.1-0.2-1.7-0.3c33.9-4.2,79.1-29.6,108.2-60.9c13.4-14.4,25.6-31.5,36.9-51.4
			c8.4-14.8,16.3-31.3,23.8-49.5c6.6-15.9,12.8-33.2,18.9-51.8c-7.8,4.1-16.7,7.2-26.6,9.2c-1.7,0.4-3.5,0.7-5.3,1
			c-1.8,0.3-3.6,0.6-5.5,0.8l0,0l0,0c0,0,0.1,0,0.1-0.1c31.7-12.2,51.6-35.7,66.1-64.5c-8.3,5.7-21.9,13.1-38.1,16.7
			c-2.2,0.5-4.4,0.9-6.7,1.3c-0.5,0.1-1.1,0.2-1.7,0.3l0,0l0,0h0.1c0,0,0,0,0.1,0l0,0c11-4.6,20.3-9.8,28.3-15.8
			c1.7-1.3,3.4-2.6,5-4c2.5-2.1,4.8-4.4,7-6.7c1.4-1.5,2.8-3.1,4.2-4.6c3.2-3.8,6.1-7.8,8.9-12.2c0.8-1.4,1.7-2.7,2.5-4.1
			c1.1-2,2.1-4,3.1-6c4.4-8.9,8-16.8,10.8-23.8c1.4-3.5,2.6-6.7,3.7-9.7c0.4-1.2,0.8-2.3,1.2-3.5c1.1-3.3,2-6.3,2.7-8.9
			c1.1-3.9,1.7-7,2.1-9.3l0,0l0,0c-1.1,0.8-2.3,1.7-3.7,2.5c-9.6,5.7-25.9,10.9-39.2,13.3l26.1-2.8l-26.1,2.8
			c-0.2,0.1-0.4,0.1-0.6,0.1c-1.4,0.2-2.6,0.4-4,0.6c0.2-0.1,0.4-0.2,0.7-0.3l-89.2,9.8C3531.7,3251.5,3531.5,3251.8,3531.4,3252.2
			L3531.4,3252.2z"/>
		
			<linearGradient id="path3260_1_" gradientUnits="userSpaceOnUse" x1="-95655.625" y1="32591.7266" x2="-94498.9531" y2="32591.7266" gradientTransform="matrix(3.681945e-02 -7.896055e-02 7.896055e-02 3.681945e-02 4214.2368 -4798.7319)">
			<stop  offset="0.3233" style="stop-color:#9C2063"/>
			<stop  offset="0.6302" style="stop-color:#C82037"/>
			<stop  offset="0.7514" style="stop-color:#CC2135"/>
			<stop  offset="1" style="stop-color:#E87726"/>
		</linearGradient>
		<path id="path3260" class="st20" d="M3631.8,3071.9c-7.9,12.2-16.6,26-25.9,41.7c-0.5,0.8-1,1.7-1.5,2.5
			c-8,13.5-16.6,28.4-25.6,44.7c-7.8,14.1-15.8,29.2-24.3,45.4c-7.3,14.1-14.9,29.2-22.7,45.1l89.2-9.8c26-12,37.6-22.7,48.8-38.4
			c3-4.3,6-8.8,9-13.5c9.2-14.3,18.1-30,26.2-45.7c7.8-15.1,14.6-30.1,19.8-43.7c3.3-8.6,6-16.6,7.9-23.6c1.6-6.2,2.9-12.1,3.9-17.7
			C3702,3064.8,3659.4,3070.5,3631.8,3071.9z"/>
		<path id="path3262" class="st13" d="M3574.1,3379.2c-1.8,0.3-3.6,0.6-5.5,0.8l0,0C3570.5,3379.9,3572.3,3379.6,3574.1,3379.2z"/>
		<path id="path3264" class="st14" d="M3574.1,3379.2c-1.8,0.3-3.6,0.6-5.5,0.8l0,0C3570.5,3379.9,3572.3,3379.6,3574.1,3379.2z"/>
		
			<linearGradient id="path3275_1_" gradientUnits="userSpaceOnUse" x1="-94978.2422" y1="32983.5742" x2="-93821.5703" y2="32983.5742" gradientTransform="matrix(3.681945e-02 -7.896055e-02 7.896055e-02 3.681945e-02 4214.2368 -4798.7319)">
			<stop  offset="0.3233" style="stop-color:#9C2063"/>
			<stop  offset="0.6302" style="stop-color:#C82037"/>
			<stop  offset="0.7514" style="stop-color:#CC2135"/>
			<stop  offset="1" style="stop-color:#E87726"/>
		</linearGradient>
		<path id="path3275" class="st21" d="M3574.1,3379.2c-1.8,0.3-3.6,0.6-5.5,0.8l0,0C3570.5,3379.9,3572.3,3379.6,3574.1,3379.2z"/>
		<path id="path3277" class="st13" d="M3588.3,3333.8c0.5-0.1,1.1-0.2,1.7-0.3C3589.5,3333.6,3588.9,3333.7,3588.3,3333.8z"/>
		<path id="path3279" class="st14" d="M3588.3,3333.8c0.5-0.1,1.1-0.2,1.7-0.3C3589.5,3333.6,3588.9,3333.7,3588.3,3333.8z"/>
		
			<linearGradient id="path3290_1_" gradientUnits="userSpaceOnUse" x1="-94978.2422" y1="32945.9961" x2="-93821.5703" y2="32945.9961" gradientTransform="matrix(3.681945e-02 -7.896055e-02 7.896055e-02 3.681945e-02 4214.2368 -4798.7319)">
			<stop  offset="0.3233" style="stop-color:#9C2063"/>
			<stop  offset="0.6302" style="stop-color:#C82037"/>
			<stop  offset="0.7514" style="stop-color:#CC2135"/>
			<stop  offset="1" style="stop-color:#E87726"/>
		</linearGradient>
		<path id="path3290" class="st22" d="M3588.3,3333.8c0.5-0.1,1.1-0.2,1.7-0.3C3589.5,3333.6,3588.9,3333.7,3588.3,3333.8z"/>
		<path id="path3292" class="st13" d="M3588.3,3333.8C3588.4,3333.8,3588.4,3333.7,3588.3,3333.8L3588.3,3333.8L3588.3,3333.8
			L3588.3,3333.8C3588.4,3333.7,3588.4,3333.8,3588.3,3333.8z"/>
		<path id="path3294" class="st14" d="M3588.3,3333.8C3588.4,3333.8,3588.4,3333.7,3588.3,3333.8L3588.3,3333.8L3588.3,3333.8
			L3588.3,3333.8C3588.4,3333.7,3588.4,3333.8,3588.3,3333.8z"/>
		
			<linearGradient id="path3305_1_" gradientUnits="userSpaceOnUse" x1="-88843.6641" y1="32938.0156" x2="-88588.0078" y2="32938.0156" gradientTransform="matrix(3.681945e-02 -7.896055e-02 7.896055e-02 3.681945e-02 4214.2368 -4798.7319)">
			<stop  offset="0.3233" style="stop-color:#9C2063"/>
			<stop  offset="0.6302" style="stop-color:#C82037"/>
			<stop  offset="0.7514" style="stop-color:#CC2135"/>
			<stop  offset="1" style="stop-color:#E87726"/>
		</linearGradient>
		<path id="path3305" class="st23" d="M3588.3,3333.8C3588.4,3333.8,3588.4,3333.7,3588.3,3333.8L3588.3,3333.8L3588.3,3333.8
			L3588.3,3333.8C3588.4,3333.7,3588.4,3333.8,3588.3,3333.8z"/>
	</g>
	<path id="path3469-1" class="st24" d="M1171.7,1276.4c-1.2-0.2-5.9-1.4-6.6-1.7c-1.7-0.7-7.6-3.7-8.3-4.2c-0.9-0.8-1-0.9-2.7-2.1
		c-1.7-1.2-5.2-4.8-6.5-6.5c-0.5-0.7-1.1-1.5-1.3-1.7c-0.2-0.2-0.5-0.6-0.7-0.8c-0.4-0.5-3.7-6.1-3.7-6.3c0-0.1-0.3-0.9-0.8-1.8
		c-0.4-0.9-1-2.4-1.3-3.3c-0.3-0.9-0.7-1.9-0.8-2.3c-0.3-0.8-1.3-5.2-1.6-7.6c-0.4-2.5-0.3-9.5,0-11.8c1-6,1.7-8.6,3.9-13.3
		c0.3-0.7,0.6-1.5,0.6-1.7c0-0.2,0.1-0.4,0.3-0.4c0.2,0,0.3-0.2,0.3-0.4s0.9-1.8,2-3.4c1.8-2.7,5.8-7.2,8.5-9.4
		c2.8-2.3,8.3-5.3,11.5-6.3c1-0.3,2.1-0.7,2.6-0.8c1.6-0.6,4.8-1,8.9-1.2c5.3-0.2,10.8,0.5,14.7,1.8c2.9,1,5.6,2.3,5.8,2.7
		c0.1,0.1,0.2,0.2,0.4,0.2c0.7,0,4.4,2.8,6.6,5c2.6,2.5,4.2,4.8,5.6,7.4c0.8,1.6,0.8,1.7,0.3,2.1c-0.3,0.2-0.8,0.5-0.9,0.7
		c-0.2,0.1-0.7,0.5-1.2,0.7c-0.5,0.3-1.5,0.9-2.3,1.4c-1.7,1-2.3,1-2.8-0.3c-1.4-3.6-7.7-9.5-12-11.3c-4.7-1.9-7.6-2.5-12.4-2.4
		c-5.1,0-8.5,0.6-12.6,2.4c-1.4,0.6-4.4,2.4-5,3c-0.2,0.2-0.5,0.4-0.6,0.4c-0.3,0-3.9,3.6-5.5,5.5c-1.7,2.1-4.7,7.4-5.4,9.6
		c-0.3,0.9-0.6,1.9-0.8,2.3c-1.4,3.1-2.2,10.7-1.7,15.8c0.3,3.5,1.1,7.1,1.7,8.5c0.2,0.4,0.4,1,0.5,1.5c0.5,2,3.6,7.6,5.2,9.6
		c1.6,2,4.5,5,5.8,6.1c1.5,1.2,6.4,4.3,6.9,4.3c0.1,0,0.6,0.2,1.1,0.4c0.5,0.2,2.1,0.8,3.7,1.2c2.4,0.7,3.6,0.8,7.3,0.7
		c6.1-0.1,10.1-1.1,15.2-4.1c3.4-2,8.1-6.6,9.7-9.5c0.6-1.1,1.3-2,1.5-2c0.7,0,7,3.4,7,3.8c0,0.5-1.9,4.1-2.3,4.3
		c-0.1,0.1-0.4,0.5-0.6,0.9c-0.8,1.5-4.3,4.9-7.7,7.5c-1.8,1.4-6.5,3.7-9.7,4.9c-4.3,1.6-6.9,2-13,2.1
		C1175.1,1276.5,1172.1,1276.5,1171.7,1276.4L1171.7,1276.4z M913.3,1275.9c0-0.2,0.1-0.6,0.3-0.9c0.2-0.3,0.6-1.3,1-2.2
		c0.4-0.9,0.8-1.9,1-2.3c0.2-0.4,1.2-2.8,2.3-5.3c1.1-2.6,2.1-5,2.3-5.3c0.2-0.4,0.7-1.6,1.1-2.8c0.5-1.2,1-2.4,1.1-2.8
		c0.2-0.4,0.6-1.4,1-2.3c0.4-0.9,0.9-2.1,1.2-2.6c0.3-0.6,0.5-1.1,0.5-1.2c0-0.2,0.6-1.7,1.6-3.9c0.2-0.4,0.7-1.6,1.1-2.8
		c0.5-1.2,1-2.4,1.1-2.8c0.2-0.4,0.7-1.6,1.1-2.8c0.5-1.2,1-2.4,1.1-2.8c0.2-0.4,0.6-1.4,1-2.3c0.4-0.9,0.8-1.9,1-2.3
		c0.2-0.4,1-2.3,1.8-4.2c0.8-2,1.6-3.9,1.8-4.2c0.2-0.4,0.9-2.1,1.6-3.9c0.7-1.8,1.5-3.5,1.6-3.9c0.2-0.4,0.8-1.9,1.4-3.4
		c3.5-8.5,4.3-10.4,5.1-12.1c0.2-0.4,0.7-1.6,1.1-2.8c0.5-1.2,1.1-2.7,1.5-3.5l0.6-1.4h3.5h3.5l0.7,1.7c0.9,2.1,1.9,4.4,2.3,5.3
		c1.1,2.5,1.6,3.7,1.6,3.9c0,0.2,0.6,1.6,1.8,4.3c0.3,0.6,0.5,1.1,0.5,1.2c0,0.2,0.5,1.4,1.6,3.9c1.1,2.5,1.6,3.7,1.6,3.9
		c0,0.1,0.3,0.9,0.7,1.7c0.4,0.8,0.9,2,1.2,2.7c0.3,0.6,0.6,1.4,0.8,1.8c0.2,0.4,0.7,1.6,1.1,2.8c0.5,1.2,1,2.4,1.1,2.8
		c0.2,0.4,1.2,2.8,2.3,5.3c1.1,2.6,2.1,5,2.3,5.3c0.2,0.4,0.5,1.2,0.8,1.9c3,7.3,4.2,10.2,4.5,11c0.2,0.5,1,2.4,1.8,4.2
		s1.5,3.5,1.6,3.9c0.2,0.4,0.6,1.4,1,2.3c0.4,0.9,0.8,1.9,1,2.3c0.2,0.4,0.7,1.6,1.1,2.8c0.5,1.2,1,2.4,1.1,2.8
		c1.6,3.5,3.6,8.4,3.6,8.8c0,0.4-0.8,0.5-4.7,0.5c-4.6,0-4.7,0-4.9-0.7c-0.2-0.7-1-2.5-1.8-4.3c-0.2-0.4-0.7-1.6-1.1-2.8
		c-0.8-2-1.4-3.5-2.1-5c-0.2-0.4-0.7-1.6-1.1-2.8c-0.5-1.2-1-2.4-1.1-2.8c-1-2.2-1.6-3.7-1.6-3.9c0-0.1-0.3-0.8-0.6-1.6
		c-0.3-0.7-0.8-1.8-1.1-2.4l-0.4-1.1h-19.1h-19.1l-0.7,1.5c-0.4,0.8-1.1,2.6-1.5,3.8c-0.5,1.2-1.2,2.9-1.5,3.6
		c-0.3,0.7-0.6,1.4-0.6,1.6c0,0.2-0.6,1.7-1.6,3.9c-0.2,0.4-0.7,1.6-1.1,2.8s-1,2.4-1.1,2.8c-0.2,0.4-0.8,2-1.5,3.6
		c-0.6,1.6-1.2,3.1-1.3,3.3C922.6,1276.4,913.3,1276.5,913.3,1275.9L913.3,1275.9z M970,1241.9c0-0.3-0.5-1.5-1.8-4.4
		c-0.3-0.6-0.5-1.1-0.5-1.2s-0.2-0.7-0.5-1.2c-0.3-0.6-1.3-3.1-2.3-5.6c-1-2.5-1.9-4.8-2.1-5.2c-0.2-0.4-1-2.4-1.8-4.5
		c-0.8-2.1-1.6-4.2-1.8-4.5c-0.2-0.4-0.5-1.2-0.8-1.8s-0.8-1.8-1.2-2.7c-0.4-0.8-0.7-1.6-0.7-1.8c0-0.1-0.2-0.6-0.4-1.1
		c-0.2-0.4-0.8-1.8-1.2-2.9c-0.4-1.2-1-2.5-1.2-2.9c-0.2-0.4-0.4-1-0.4-1.2c0-0.7-0.6-0.4-0.8,0.3c-0.1,0.4-0.4,1.2-0.6,1.7
		c-0.2,0.5-1,2.4-1.8,4.2c-0.7,1.8-1.8,4.3-2.3,5.5c-0.5,1.2-3.3,7.9-6.1,14.7c-2.8,6.9-5.4,13-5.7,13.7l-0.5,1.2h17.2
		C964.6,1242.3,970,1242.2,970,1241.9L970,1241.9z M1001.7,1232.9v-43.4l18.1,0c18.9,0,22.3,0.2,25.3,1.3c2.1,0.8,5.4,2.4,6,3
		c0.2,0.2,0.9,0.8,1.5,1.2c4.2,3.1,8.2,9.3,9.7,15.1c1.5,5.6,0.9,13.2-1.5,18.4c-3.4,7.6-9,12.8-16.1,15c-1.4,0.4-4.3,0.5-18,0.6
		l-16.3,0.1v16v16h-4.4h-4.4V1232.9L1001.7,1232.9z M1040.1,1236.1c6-0.8,10.8-5.4,13.2-12.4c0.8-2.4,1-9.1,0.3-11.8
		c-0.9-3.7-2.6-6.7-5.2-9.2c-1.3-1.2-2.7-2.5-3.3-2.8c-0.5-0.3-1-0.6-1.1-0.7c-0.1-0.1-0.8-0.5-1.6-0.8c-1.4-0.6-2.5-0.6-16.8-0.7
		l-15.3-0.1v19.4v19.4h13.6C1032,1236.4,1038.6,1236.3,1040.1,1236.1L1040.1,1236.1z M1058.2,1276c-0.1-0.1,0.4-1.6,1.1-3.2
		c0.7-1.6,2.5-6,4-9.7s3-7.2,3.2-7.8c0.2-0.5,1-2.4,1.8-4.2c1.3-3.1,2-4.8,2.6-6.2c0.2-0.4,0.9-2.1,1.6-3.9c0.7-1.8,1.5-3.7,1.8-4.2
		c0.2-0.5,1.2-2.8,2.1-5s2.1-5.1,2.6-6.3c1.1-2.7,4.8-11.4,5.2-12.3c0.2-0.4,0.7-1.6,1.1-2.8c0.5-1.2,1-2.4,1.1-2.8
		c0.2-0.4,0.6-1.4,1-2.3c0.4-0.9,0.9-2.1,1.2-2.6c0.3-0.6,0.5-1.1,0.5-1.2c0-0.2,0.5-1.4,1.6-3.9c0.6-1.4,1.6-3.7,2.3-5.5
		c0.4-1.1,0.9-2.1,1.1-2.3c0.2-0.3,1.4-0.4,3.8-0.4h3.5l0.4,1.1c0.8,2.1,4.6,10.9,5.5,13c0.2,0.4,0.9,2.1,1.6,3.9
		c0.7,1.8,1.5,3.5,1.6,3.9c0.2,0.4,1.4,3.3,2.8,6.6c1.3,3.3,2.6,6.3,2.7,6.6c0.2,0.4,1,2.5,2,4.7c2.2,5.3,4.5,10.7,4.8,11.5
		c0.2,0.4,0.6,1.4,1,2.3c0.4,0.9,0.8,1.9,1,2.3c0.2,0.4,0.7,1.6,1.1,2.8c0.8,2,1.4,3.5,2.1,5c0.2,0.4,0.7,1.6,1.1,2.8
		c0.5,1.2,1.1,2.6,1.3,3.1c0.3,0.6,0.5,1.1,0.5,1.2s0.4,1.2,1,2.3c0.5,1.2,1,2.2,1,2.3s0.2,0.6,0.5,1.2s0.8,2,1.3,3.1
		c0.5,1.2,1,2.4,1.1,2.8c1.1,2.5,1.6,3.7,1.6,4c0,0.5-8.9,0.5-9.3-0.1c-0.2-0.2-1.6-3.5-3.2-7.4c-1.6-3.8-3-7.4-3.3-7.9
		c-0.2-0.5-0.8-1.9-1.3-3.1c-0.5-1.2-1-2.4-1.1-2.8c-0.4-1-1.5-3.4-1.9-4.6l-0.4-1.1l-19.3,0.1l-19.3,0.1l-1.9,4.7
		c-1.1,2.6-2.1,5-2.2,5.4c-0.2,0.4-0.3,0.8-0.3,0.9c0,0.1-0.7,1.8-1.6,3.8c-0.2,0.4-0.7,1.6-1.1,2.8c-0.5,1.2-1,2.5-1.3,3.1
		c-0.2,0.5-0.9,2.2-1.5,3.6l-1.1,2.7h-4.5C1060.4,1276.3,1058.3,1276.2,1058.2,1276L1058.2,1276z M1114.7,1242.1
		c0-0.2-1.1-2.9-2.1-5.2c-0.2-0.5-0.8-1.9-1.2-3.1s-0.9-2.5-1.2-2.9s-0.4-0.9-0.4-1.1c0-0.2-0.6-1.6-1.6-3.9
		c-0.2-0.4-0.7-1.6-1.1-2.8c-0.5-1.2-1-2.5-1.3-3.1c-0.2-0.5-0.7-1.7-1-2.6c-0.3-0.9-0.8-2-1-2.4c-0.2-0.4-0.4-0.9-0.4-1.1
		c0-0.2-0.2-0.7-0.5-1.3c-0.3-0.6-1-2.4-1.7-4.1c-0.7-1.7-1.4-3.7-1.8-4.4c-0.3-0.7-0.8-1.8-1-2.3c-0.6-1.3-0.9-1.2-1.5,0.4
		c-0.2,0.7-0.6,1.6-0.7,1.9c-0.2,0.4-0.6,1.4-1,2.3s-0.8,1.9-1,2.3c-0.3,0.6-3.8,9-8.1,19.4c-0.9,2.1-1.7,4.2-1.9,4.5
		c-0.2,0.4-0.9,2.1-1.6,3.9c-0.7,1.8-1.5,3.7-1.8,4.3c-0.3,0.6-0.5,1.1-0.5,1.2s7.7,0.2,17.2,0.2
		C1107,1242.3,1114.7,1242.2,1114.7,1242.1L1114.7,1242.1z M1223.3,1275.9c-0.1-0.2-0.1-19.7-0.1-43.3l0.1-42.9h4.2h4.2l0.1,19.2
		l0.1,19.2h25.4h25.4v-19.3v-19.3h4.4h4.4v43.4v43.4h-4.4h-4.4V1256v-20.2h-25.4h-25.4l-0.1,20.2l-0.1,20.2l-4.1,0.1
		C1224.5,1276.3,1223.4,1276.2,1223.3,1275.9L1223.3,1275.9z M1310.6,1232.9v-43.4h28.5h28.5v4v4h-24.1h-24.1v15.2v15.2h21h21v3.9
		v3.9h-21h-21v16.2v16.2h24.6h24.6v4v4h-29h-29V1232.9z"/>
	<g id="text4654">
		<path id="path4656" d="M910.8,1313.4v-26.9h4.5v11.6h13.3v-11.6h4.5v26.9h-4.5v-11h-13.3v11H910.8z"/>
		<path id="path4658" d="M950.8,1290.7v22.7h-4.5v-22.7h-8.1v-4.1H959v4.1H950.8z"/>
		<path id="path4660" d="M974,1290.7v22.7h-4.5v-22.7h-8.1v-4.1h20.8v4.1H974z"/>
		<path id="path4662" d="M996.3,1286.6c4.1,0,7,0.8,8.9,2.3s2.8,4,2.8,7.2c0,3.3-1,5.6-2.9,7.1c-1.9,1.5-4.8,2.3-8.8,2.3h-4.8v7.9
			h-4.5v-26.9L996.3,1286.6z M996.9,1301.4c2.5,0,4.2-0.5,5.1-1.4c0.9-1,1.4-2.4,1.4-4.2c0-1.9-0.6-3.2-1.7-4
			c-1.2-0.8-3-1.2-5.4-1.2h-4.6v10.8H996.9z"/>
		<path id="path4664" d="M1031.9,1290.1c-1.3,0-2.4,0.3-3.2,0.8c-0.8,0.5-1.3,1.4-1.3,2.5c0,1.1,0.4,1.9,1.3,2.5
			c0.8,0.6,2.6,1.2,5.4,1.8c2.8,0.7,4.8,1.6,6.2,2.8c1.4,1.2,2.1,3,2.1,5.3c0,2.3-0.9,4.2-2.7,5.7s-4.1,2.2-7,2.2
			c-4.2,0-7.9-1.4-11.2-4.3l2.8-3.4c2.7,2.4,5.5,3.5,8.5,3.5c1.5,0,2.6-0.3,3.5-0.9c0.9-0.6,1.3-1.5,1.3-2.5c0-1.1-0.4-1.9-1.2-2.4
			c-0.8-0.6-2.2-1.1-4.1-1.6c-2-0.5-3.5-0.9-4.5-1.3c-1-0.4-1.9-0.9-2.7-1.6c-1.6-1.2-2.4-3-2.4-5.5c0-2.5,0.9-4.4,2.7-5.7
			c1.8-1.4,4.1-2,6.7-2c1.7,0,3.4,0.3,5.1,0.8c1.7,0.6,3.2,1.4,4.4,2.4l-2.4,3.4c-0.8-0.7-1.9-1.3-3.2-1.8
			C1034.6,1290.3,1033.3,1290.1,1031.9,1290.1L1031.9,1290.1z"/>
		<path id="path4666" d="M1066.9,1286.6v4.3h-14.3v7.1h12.9v4h-12.9v7.2h14.8v4.3h-19.3v-26.9H1066.9z"/>
		<path id="path4668" d="M1094.7,1295.3c0,4.4-1.9,7.2-5.8,8.4l7,9.8h-5.8l-6.4-9h-6v9h-4.5v-26.9h10c4.1,0,7,0.7,8.8,2.1
			C1093.8,1290,1094.7,1292.2,1094.7,1295.3L1094.7,1295.3z M1083.4,1300.3c2.6,0,4.3-0.4,5.2-1.2c0.9-0.8,1.4-2.1,1.4-3.8
			c0-1.8-0.5-3-1.4-3.6c-0.9-0.7-2.6-1-5.1-1h-5.8v9.6H1083.4z"/>
		<path id="path4670" d="M1113.1,1313.4h-5.1l-10.8-26.9h5.1l8.3,20.1l8.3-20.1h5.1L1113.1,1313.4z"/>
		<path id="path4672" d="M1146.6,1286.6v4.3h-14.3v7.1h12.9v4h-12.9v7.2h14.8v4.3h-19.3v-26.9H1146.6z"/>
		<path id="path4674" d="M1174.3,1295.3c0,4.4-1.9,7.2-5.8,8.4l7,9.8h-5.8l-6.4-9h-6v9h-4.5v-26.9h10c4.1,0,7,0.7,8.8,2.1
			C1173.4,1290,1174.3,1292.2,1174.3,1295.3L1174.3,1295.3z M1163,1300.3c2.6,0,4.3-0.4,5.2-1.2c0.9-0.8,1.4-2.1,1.4-3.8
			c0-1.8-0.5-3-1.4-3.6c-0.9-0.7-2.6-1-5.1-1h-5.8v9.6H1163z"/>
		<path id="path4676" d="M1200.6,1286.6c4.1,0,7,0.8,8.9,2.3s2.8,4,2.8,7.2c0,3.3-1,5.6-2.9,7.1c-1.9,1.5-4.8,2.3-8.8,2.3h-4.8v7.9
			h-4.5v-26.9L1200.6,1286.6z M1201.1,1301.4c2.5,0,4.2-0.5,5.1-1.4c0.9-1,1.4-2.4,1.4-4.2c0-1.9-0.6-3.2-1.7-4
			c-1.2-0.8-3-1.2-5.4-1.2h-4.6v10.8H1201.1z"/>
		<path id="path4678" d="M1239,1295.3c0,4.4-1.9,7.2-5.8,8.4l7,9.8h-5.8l-6.4-9h-6v9h-4.5v-26.9h10c4.1,0,7,0.7,8.8,2.1
			C1238.2,1290,1239,1292.2,1239,1295.3L1239,1295.3z M1227.8,1300.3c2.6,0,4.3-0.4,5.2-1.2c0.9-0.8,1.4-2.1,1.4-3.8
			c0-1.8-0.5-3-1.4-3.6c-0.9-0.7-2.6-1-5.1-1h-5.8v9.6H1227.8z"/>
		<path id="path4680" d="M1264.7,1292.9c-1.8-1.9-4.1-2.8-6.7-2.8c-2.7,0-4.9,0.9-6.8,2.8c-1.8,1.9-2.7,4.2-2.7,6.9
			c0,2.7,0.9,5,2.7,6.9c1.8,1.9,4.1,2.8,6.8,2.8c2.7,0,4.9-0.9,6.7-2.8c1.8-1.9,2.8-4.2,2.8-6.9
			C1267.5,1297.1,1266.6,1294.8,1264.7,1292.9z M1268.1,1309.7c-2.7,2.6-6.1,4-10.1,4c-4,0-7.4-1.3-10.1-4c-2.7-2.7-4.1-6-4.1-9.9
			c0-4,1.4-7.3,4.1-9.9c2.7-2.7,6.1-4,10.1-4c4,0,7.4,1.3,10.1,4c2.7,2.6,4.1,5.9,4.1,9.9
			C1272.1,1303.8,1270.8,1307.1,1268.1,1309.7z"/>
		<path id="path4682" d="M1277.9,1290.6v-4.1h13.1v17.7c0,3.1-0.8,5.5-2.4,7s-3.6,2.3-6.1,2.3c-3.1,0-5.8-1.1-8-3.3l2.6-3.6
			c1.7,1.7,3.4,2.5,5.1,2.5c1.2,0,2.2-0.4,3-1.2c0.8-0.8,1.3-2,1.3-3.6v-13.9H1277.9z"/>
		<path id="path4684" d="M1317.1,1286.6v4.3h-14.3v7.1h12.9v4h-12.9v7.2h14.8v4.3h-19.3v-26.9H1317.1z"/>
		<path id="path4686" d="M1335.6,1309.3c1.6,0,2.9-0.3,4-0.8c1.1-0.5,2.3-1.4,3.5-2.5l2.9,3c-2.8,3.2-6.3,4.7-10.4,4.7
			c-4,0-7.4-1.3-10.1-3.9c-2.7-2.6-4-5.9-4-9.9s1.4-7.3,4.1-10c2.7-2.7,6.2-4,10.3-4c4.2,0,7.7,1.5,10.5,4.6l-2.9,3.2
			c-1.3-1.2-2.5-2.1-3.7-2.6c-1.1-0.5-2.5-0.7-4-0.7c-2.7,0-5,0.9-6.8,2.7c-1.8,1.7-2.8,4-2.8,6.7c0,2.7,0.9,5,2.7,6.8
			C1330.9,1308.4,1333.1,1309.3,1335.6,1309.3L1335.6,1309.3z"/>
		<path id="path4688" d="M1361.8,1290.7v22.7h-4.5v-22.7h-8.1v-4.1h20.8v4.1H1361.8z"/>
	</g>
</g>
<g>
	<g>
		<g transform="translate(150.000000, 31.000000)">
			<path class="st25" d="M-10.9,170.4v-26.2h3.4l16,21.1v-21.1h3.2v26.2H8.3l-16-21.3v21.3H-10.9L-10.9,170.4z"/>
			<path class="st25" d="M37.7,169.4c-2.1,0.8-4.4,1.2-6.8,1.2c-9.5,0-14.2-4.5-14.2-13.6c0-8.6,4.6-12.9,13.7-12.9
				c2.6,0,5.1,0.4,7.3,1.1v2.9c-2.2-0.9-4.6-1.3-6.9-1.3c-7.1,0-10.7,3.4-10.7,10.1c0,7.3,3.5,10.9,10.5,10.9c1.1,0,2.4-0.2,3.7-0.5
				v-8.8h3.4V169.4L37.7,169.4z"/>
			<path class="st25" d="M43.1,160.3v-16.1h3.4v16.1c0,5,2.5,7.6,7.5,7.6c5,0,7.5-2.5,7.5-7.6v-16.1h3.4v16.1
				c0,6.9-3.6,10.3-10.9,10.3S43.1,167.2,43.1,160.3L43.1,160.3L43.1,160.3z"/>
			<path class="st25" d="M74.2,144.2v23.4h13.7v2.7H70.8v-26.2H74.2L74.2,144.2z"/>
			<path class="st25" d="M92.8,170.4h-3.5l13-29.6l13,29.6h-3.7l-3.4-8.2h-8.6l0.9-2.7h6.6l-4.9-11.8L92.8,170.4L92.8,170.4z"/>
			<path class="st25" d="M118.9,170.4v-26.2H130c5,0,7.5,2.1,7.5,6.3c0,3.4-2.5,5.9-7.3,7.6l9,12.3h-4.4l-8.3-11.8v-2.2
				c5-0.8,7.5-2.7,7.5-5.8c0-2.4-1.4-3.6-4.2-3.6h-7.5v23.3H118.9L118.9,170.4z"/>
		</g>
		<g>
			<path class="st26" d="M76.5,168.3l26.8-9.6l27.5,9.4l-4.4,35.4l-23.1,12.8l-22.7-12.6L76.5,168.3L76.5,168.3z"/>
			<path class="st25" d="M130.8,168.1l-27.5-9.4v57.6l23.1-12.8L130.8,168.1L130.8,168.1z"/>
			<path class="st27" d="M103.4,165.4L103.4,165.4l-16.7,37.1l6.2-0.1l3.4-8.4h7.1h7.8l3.7,8.5l5.9,0.1L103.4,165.4L103.4,165.4z
				 M103.4,177.4l5.6,11.8h-5.4h-0.3h-4.9L103.4,177.4L103.4,177.4z"/>
		</g>
	</g>
</g>
<rect x="37.2" y="277.1" class="st28" width="880" height="170"/>
<rect x="932.2" y="112.5" class="st29" width="290" height="334.6"/>
<rect x="519.2" y="112.5" class="st30" width="300" height="150"/>
<rect x="37.2" y="112.5" class="st30" width="300" height="150"/>
<rect x="1391.2" y="112.1" class="st31" width="492" height="202.4"/>
<rect x="36.8" y="462.1" class="st32" width="1185.5" height="202.4"/>
<rect x="36.8" y="679.5" class="st33" width="1185.5" height="202.4"/>
<g id="XMLID_2369_">
	<g id="XMLID_2638_">
		<g id="XMLID_2639_">
			<g>
				<g id="XMLID_1_">
					<g id="XMLID_5_">
						<path id="XMLID_6_" class="st34" d="M901.5,863v-10.2c10.8,0,19.2-10.7,15.1-22.1c-1.6-4.2-4.9-7.6-9.1-9.1
							c-11.4-4.1-22.1,4.2-22.1,15.1l0,0h-10.2c0-17.2,16.7-30.7,34.8-25.1c7.9,2.4,14.2,8.8,16.6,16.6
							C932.1,846.3,918.7,863,901.5,863z"/>
					</g>
					<polygon id="XMLID_4_" class="st35" points="901.5,852.8 891.3,852.8 891.3,842.6 891.3,842.6 901.5,842.6 901.5,842.6 					
						"/>
					<polygon id="XMLID_3_" class="st35" points="891.3,860.6 883.5,860.6 883.5,860.6 883.5,852.8 891.3,852.8 					"/>
					<polygon id="XMLID_2_" class="st35" points="883.5,852.8 876.9,852.8 876.9,852.8 876.9,846.3 876.9,846.3 883.5,846.3 
						883.5,846.3 					"/>
				</g>
			</g>
		</g>
	</g>
	<g id="XMLID_2370_">
		<path id="XMLID_2635_" class="st34" d="M968.9,825.5c-3-2.1-6.8-3.2-11.1-3.2h-9.5v30.3h9.5c4.4,0,8.1-1.1,11.1-3.3
			c1.7-1.1,3-2.8,3.9-4.8c0.9-2,1.4-4.4,1.4-7.1c0-2.7-0.5-5.1-1.4-7.1C971.9,828.2,970.6,826.6,968.9,825.5z M953.8,827.5h3
			c3.3,0,6.1,0.7,8.2,1.9c2.3,1.4,3.5,4.1,3.5,7.9c0,4-1.2,6.7-3.5,8.2l0,0c-2,1.3-4.7,2-8.1,2h-3L953.8,827.5L953.8,827.5z"/>
		<path id="XMLID_2634_" class="st34" d="M980.8,822c-0.9,0-1.7,0.3-2.3,0.9s-1,1.4-1,2.3c0,0.9,0.3,1.7,1,2.3c0.6,0.6,1.4,1,2.3,1
			s1.7-0.3,2.3-1c0.6-0.6,1-1.5,1-2.3c0-0.9-0.3-1.7-1-2.3C982.5,822.3,981.7,822,980.8,822z"/>
		<rect id="XMLID_2564_" x="978" y="831.3" class="st34" width="5.4" height="21.4"/>
		<path id="XMLID_2561_" class="st34" d="M1002.9,833.1c-1.6-1.5-3.4-2.3-5.4-2.3c-3,0-5.4,1-7.3,3c-1.9,2-2.9,4.6-2.9,7.7
			c0,3,0.9,5.6,2.9,7.7c1.9,2,4.4,3,7.3,3c2.1,0,3.9-0.6,5.3-1.7v0.5c0,1.8-0.5,3.1-1.4,4.1c-0.9,0.9-2.2,1.4-3.9,1.4
			c-2.5,0-4-1-5.9-3.5l-3.6,3.5l0.1,0.2c0.8,1.1,2,2.2,3.6,3.2s3.6,1.6,6,1.6c3.2,0,5.8-1,7.7-2.9c1.9-1.9,2.9-4.5,2.9-7.8v-19.4
			h-5.3L1002.9,833.1L1002.9,833.1z M1001.5,845.7c-0.9,1-2.1,1.6-3.7,1.6c-1.6,0-2.8-0.5-3.6-1.6c-0.9-1-1.4-2.4-1.4-4.2
			c0-1.7,0.5-3.2,1.4-4.2s2.1-1.6,3.6-1.6c1.6,0,2.8,0.5,3.7,1.6c0.9,1,1.4,2.5,1.4,4.2C1002.9,843.3,1002.4,844.7,1001.5,845.7z"/>
		<rect id="XMLID_2560_" x="1012.8" y="831.3" class="st34" width="5.4" height="21.4"/>
		<path id="XMLID_2552_" class="st34" d="M1015.5,822c-0.9,0-1.7,0.3-2.3,0.9s-1,1.4-1,2.3c0,0.9,0.3,1.7,1,2.3c0.6,0.6,1.4,1,2.3,1
			c0.9,0,1.7-0.3,2.3-1c0.6-0.6,1-1.5,1-2.3c0-0.9-0.3-1.7-1-2.3C1017.2,822.3,1016.4,822,1015.5,822z"/>
		<path id="XMLID_2509_" class="st34" d="M1029.9,825.6h-5.3v5.8h-3.1v4.9h3.1v8.9c0,2.8,0.6,4.7,1.7,5.9s3,1.7,5.8,1.7
			c0.9,0,1.8-0.1,2.6-0.1h0.3v-4.9l-1.8,0.1c-1.3,0-2.1-0.2-2.6-0.7c-0.4-0.5-0.6-1.4-0.6-2.8v-8.1h5v-4.9h-5L1029.9,825.6
			L1029.9,825.6z"/>
		<rect id="XMLID_2508_" x="1060.1" y="822.4" class="st34" width="5.4" height="30.3"/>
		<path id="XMLID_2470_" class="st34" d="M1119.7,845c-0.9,1.1-1.9,2-2.7,2.5l0,0c-0.7,0.5-1.7,0.7-2.8,0.7c-1.6,0-2.9-0.6-3.9-1.8
			s-1.6-2.7-1.6-4.5s0.5-3.3,1.5-4.5c1-1.2,2.3-1.8,3.9-1.8c1.7,0,3.5,1.1,5.1,2.9l3.5-3.4l0,0c-2.3-3-5.3-4.4-8.8-4.4
			c-3,0-5.5,1.1-7.6,3.2s-3.1,4.8-3.1,8s1,5.8,3.1,8s4.6,3.2,7.6,3.2c3.9,0,7-1.7,9.1-4.7L1119.7,845z"/>
		<path id="XMLID_2460_" class="st34" d="M1141.7,834.3c-0.8-1-1.8-1.9-3.1-2.6c-1.3-0.6-2.8-0.9-4.4-0.9c-3,0-5.5,1.1-7.3,3.3
			c-1.8,2.2-2.7,4.8-2.7,8c0,3.2,1,5.9,3,8c1.9,2,4.6,3.1,7.8,3.1c3.6,0,6.6-1.5,8.8-4.4l0.1-0.2l-3.5-3.4l0,0
			c-0.3,0.4-0.8,0.8-1.2,1.3c-0.5,0.5-1,0.9-1.6,1.1c-0.8,0.4-1.7,0.6-2.7,0.6c-1.5,0-2.7-0.4-3.6-1.3c-0.9-0.8-1.4-1.9-1.5-3.2
			h14.2l0.1-2c0-1.4-0.2-2.7-0.6-4C1143.1,836.5,1142.5,835.4,1141.7,834.3z M1130,839.3c0.3-1,0.7-1.9,1.4-2.6
			c0.7-0.7,1.7-1.1,2.8-1.1c1.3,0,2.3,0.4,3,1.1c0.6,0.7,1,1.5,1.1,2.5L1130,839.3L1130,839.3z"/>
		<path id="XMLID_2456_" class="st34" d="M1162.4,832.9L1162.4,832.9c-1.6-1.4-3.9-2.1-6.7-2.1c-1.8,0-3.4,0.4-4.9,1.1
			c-1.4,0.7-2.8,1.9-3.6,3.4l0.1,0.1l3.4,3.3c1.4-2.2,3-3,5.1-3c1.1,0,2,0.3,2.8,0.9c0.7,0.6,1,1.4,1,2.3v1c-1.4-0.4-2.7-0.6-4-0.6
			c-2.7,0-4.8,0.6-6.5,1.9s-2.4,3.1-2.4,5.3c0,2,0.7,3.6,2.1,4.8c1.4,1.1,3.1,1.8,5.2,1.8s4-0.8,5.7-2.2v1.8h5.3v-13.8
			C1164.9,836.4,1164,834.3,1162.4,832.9z M1152.8,844.5c0.6-0.4,1.5-0.6,2.6-0.6c1.3,0,2.7,0.3,4.1,0.8v2.1
			c-1.1,1.1-2.7,1.6-4.6,1.6c-0.9,0-1.7-0.2-2.1-0.6c-0.5-0.4-0.7-0.9-0.7-1.6C1151.9,845.5,1152.2,844.9,1152.8,844.5z"/>
		<path id="XMLID_2454_" class="st34" d="M1185.5,833.4c-1.5-1.7-3.6-2.5-6.3-2.5c-2.1,0-3.9,0.6-5.2,1.8v-1.3h-5.3v21.4h5.4v-11.8
			c0-1.6,0.4-2.9,1.1-3.8c0.8-0.9,1.8-1.4,3.2-1.4c1.2,0,2.1,0.4,2.8,1.2c0.7,0.8,1,1.9,1,3.3v12.3h5.4v-12.3
			C1187.7,837.4,1187,835,1185.5,833.4z"/>
		<path id="XMLID_2450_" class="st34" d="M1053.4,832.9L1053.4,832.9c-1.6-1.4-3.9-2.1-6.7-2.1c-1.8,0-3.4,0.4-4.9,1.1
			c-1.4,0.7-2.8,1.9-3.6,3.4l0.1,0.1l3.4,3.3c1.4-2.2,3-3,5.1-3c1.1,0,2,0.3,2.8,0.9c0.7,0.6,1,1.4,1,2.3v1c-1.4-0.4-2.7-0.6-4-0.6
			c-2.7,0-4.8,0.6-6.5,1.9c-1.6,1.3-2.4,3.1-2.4,5.3c0,2,0.7,3.6,2.1,4.8c1.4,1.1,3.1,1.8,5.2,1.8s4-0.8,5.7-2.2v1.8h5.3v-13.8
			C1055.8,836.4,1055,834.3,1053.4,832.9z M1043.8,844.5c0.6-0.4,1.5-0.6,2.6-0.6c1.3,0,2.7,0.3,4.1,0.8v2.1
			c-1.1,1.1-2.7,1.6-4.6,1.6c-0.9,0-1.7-0.2-2.1-0.6c-0.5-0.4-0.7-0.9-0.7-1.6C1042.9,845.5,1043.2,844.9,1043.8,844.5z"/>
		<path id="XMLID_2371_" class="st34" d="M1084.9,853.1c-8.6,0-15.6-7-15.6-15.6s7-15.6,15.6-15.6c8.6,0,15.6,7,15.6,15.6
			S1093.5,853.1,1084.9,853.1z M1084.9,827.4c-5.6,0-10.1,4.5-10.1,10.1s4.5,10.1,10.1,10.1c5.6,0,10.1-4.5,10.1-10.1
			S1090.5,827.4,1084.9,827.4z"/>
	</g>
</g>
<g>
	<g>
		<path class="st34" d="M572.3,762.4h12.8c3.9,0,7.4,0.8,10.3,2.4c2.9,1.6,5.2,3.8,6.8,6.7c1.6,2.9,2.4,6.2,2.4,9.9s-0.8,7-2.4,9.9
			c-1.6,2.9-3.8,5.1-6.8,6.7c-2.9,1.6-6.4,2.4-10.3,2.4h-12.8V762.4z M584.8,793.6c4.1,0,7.2-1.1,9.4-3.3c2.2-2.2,3.2-5.1,3.2-8.9
			s-1.1-6.7-3.2-8.9c-2.2-2.2-5.3-3.3-9.4-3.3h-5.3v24.3H584.8z"/>
		<path class="st34" d="M611.4,762.4h13.8c2.5,0,4.7,0.5,6.6,1.5c1.9,1,3.4,2.4,4.5,4.3c1.1,1.8,1.6,3.9,1.6,6.2
			c0,2.4-0.8,4.6-2.3,6.5c-1.5,1.9-3.5,3.3-5.8,4.1l-0.1,0.4l10.2,14.6v0.4h-8.2l-9.8-14.2h-3.3v14.2h-7.1V762.4z M625.1,779.5
			c1.6,0,2.9-0.5,4-1.5c1-1,1.5-2.2,1.5-3.8c0-1.4-0.5-2.7-1.5-3.7c-1-1-2.3-1.5-3.9-1.5h-6.7v10.5H625.1z"/>
		<path class="st34" d="M652.7,798.6c-3-1.7-5.4-4.1-7.1-7.2c-1.7-3-2.6-6.4-2.6-10c0-3.6,0.9-7,2.6-10c1.7-3,4.1-5.4,7.1-7.2
			c3-1.7,6.4-2.6,10.1-2.6s7.1,0.9,10.1,2.6c3,1.7,5.4,4.1,7.1,7.2c1.7,3,2.6,6.4,2.6,10c0,3.6-0.9,7-2.6,10c-1.7,3-4.1,5.4-7.1,7.2
			c-3,1.7-6.4,2.6-10.1,2.6S655.7,800.3,652.7,798.6z M669.2,792.8c1.9-1.1,3.5-2.6,4.6-4.6c1.1-2,1.7-4.2,1.7-6.8s-0.6-4.8-1.7-6.8
			c-1.1-2-2.6-3.5-4.6-4.6c-1.9-1.1-4.1-1.6-6.4-1.6s-4.5,0.5-6.4,1.6c-1.9,1.1-3.4,2.6-4.6,4.6c-1.1,2-1.7,4.2-1.7,6.8
			s0.6,4.8,1.7,6.8s2.6,3.5,4.6,4.6c1.9,1.1,4,1.6,6.4,1.6S667.3,793.9,669.2,792.8z"/>
		<path class="st34" d="M689.4,762.4h13.3c2.4,0,4.6,0.5,6.6,1.5c2,1,3.5,2.4,4.7,4.2c1.1,1.8,1.7,3.9,1.7,6.2
			c0,2.3-0.6,4.4-1.7,6.2c-1.1,1.8-2.7,3.3-4.7,4.3c-2,1-4.2,1.5-6.6,1.5h-6.2v13.9h-7.1V762.4z M702.9,779.6c1.8,0,3.1-0.5,4.2-1.5
			c1-1,1.5-2.3,1.5-3.7s-0.5-2.7-1.5-3.7c-1-1-2.4-1.5-4.2-1.5h-6.4v10.4H702.9z"/>
		<path class="st34" d="M721.6,762.4h7.1v31.1h16v6.8h-23.2V762.4z"/>
		<path class="st34" d="M750.8,762.4h24v6.8h-16.9v8.8h15.2v6.8h-15.2v8.8h16.9v6.8h-24V762.4z"/>
		<path class="st34" d="M789.8,769.2h-10.6v-6.8h28.3v6.8H797v31.1h-7.1V769.2z"/>
	</g>
	<g>
		<path class="st34" d="M496,833.2c-24.2,0-44.6-20.2-44.6-44.1c0-35.6,41-58.9,42.8-59.8l1.8-1l1.8,1c1.7,1,42.7,25.1,42.7,60.1
			C540.6,813.5,520.6,833.2,496,833.2z M496,736.8c-7.7,4.8-37.2,25-37.2,52.3c0,19.9,17,36.7,37.2,36.7c20.2,0,37.2-16.7,37.2-36.4
			C533.2,762.5,503.7,741.8,496,736.8z"/>
		<path class="st34" d="M496,805.9c-9.7,0-17.3-7.6-17.3-17.3c0-12,13.6-22.3,15.1-23.4l2.1-1.6l2.2,1.5
			c0.6,0.4,15.2,10.9,15.2,23.4C513.3,798.3,505.7,805.9,496,805.9z M496,772.9c-4,3.5-10,9.9-10,15.7c0,5.6,4.4,9.9,9.9,9.9
			c5.6,0,9.9-4.4,9.9-9.9C505.9,782.6,500,776.3,496,772.9z"/>
	</g>
</g>
<g id="ubuntu-logo">
	<path id="ubuntu" class="st36" d="M786.3,565.9c-11.8,0-21.3-9.5-21.3-21.3c0-11.8,9.5-21.3,21.3-21.3c11.8,0,21.3,9.5,21.3,21.3
		C807.6,556.4,798.1,565.9,786.3,565.9z M773,542c-1.4,0-2.6,1.1-2.6,2.6c0,1.4,1.1,2.6,2.6,2.6c1.4,0,2.6-1.1,2.6-2.6
		C775.6,543.2,774.4,542,773,542z M791.3,553.7c-1.2,0.7-1.6,2.3-0.9,3.5c0.7,1.2,2.3,1.7,3.5,0.9c1.2-0.7,1.7-2.3,0.9-3.5
		C794.1,553.4,792.5,553,791.3,553.7L791.3,553.7z M778.6,544.6c0-2.5,1.3-4.8,3.2-6.1l-1.9-3.1c-2.2,1.5-3.9,3.8-4.6,6.5
		c0.8,0.7,1.3,1.7,1.3,2.8c0,1.1-0.5,2.1-1.3,2.8c0.7,2.7,2.4,5,4.6,6.5l1.9-3.1C779.8,549.4,778.6,547.1,778.6,544.6z M786,537.1
		c3.9,0,7.1,3,7.5,6.8l3.7-0.1c-0.2-2.8-1.4-5.4-3.3-7.2c-1,0.4-2.1,0.3-3.1-0.3c-1-0.6-1.6-1.5-1.7-2.5c-0.9-0.3-1.9-0.4-3-0.4
		c-1.8,0-3.4,0.4-4.9,1.1l1.8,3.2C783.8,537.4,784.9,537.1,786,537.1L786,537.1z M786,552.1c-1.1,0-2.2-0.3-3.1-0.7l-1.8,3.2
		c1.5,0.7,3.2,1.1,4.9,1.1c1,0,2-0.1,3-0.4c0.2-1,0.8-2,1.7-2.5c1-0.6,2.1-0.6,3.1-0.2c1.9-1.9,3.1-4.4,3.3-7.2l-3.7-0.1
		C793.2,549.1,790,552.1,786,552.1L786,552.1z M791.3,535.5c1.2,0.7,2.8,0.3,3.5-0.9c0.7-1.2,0.3-2.8-0.9-3.5
		c-1.2-0.7-2.8-0.3-3.5,0.9C789.6,533.2,790.1,534.8,791.3,535.5L791.3,535.5z M494,600.5c-2.2,0.5-5,1.1-8.6,1.7
		c-3.6,0.6-7.7,0.9-12.3,0.9c-4.1,0-7.5-0.6-10.3-1.8c-2.8-1.2-5-2.9-6.7-5c-1.7-2.2-2.9-4.7-3.7-7.7c-0.8-3-1.1-6.2-1.1-9.8v-29.6
		h9.4v27.6c0,6.4,1,11,3,13.8c2,2.8,5.4,4.2,10.3,4.2c1,0,2.1,0,3.1-0.1c1.1-0.1,2.1-0.1,3-0.2c0.9-0.1,1.8-0.2,2.6-0.3
		c0.8-0.1,1.3-0.2,1.7-0.4v-44.6h9.4V600.5L494,600.5z M517.1,551.6c1.2-0.7,2.9-1.5,5.2-2.3c2.3-0.8,5-1.2,8.1-1.2
		c3.8,0,7.2,0.7,10.1,2c2.9,1.4,5.4,3.3,7.5,5.7c2,2.4,3.6,5.3,4.6,8.7c1.1,3.4,1.6,7.1,1.6,11.2c0,4.3-0.6,8.1-1.9,11.5
		c-1.3,3.4-3,6.3-5.3,8.7c-2.3,2.4-5.1,4.2-8.3,5.5c-3.2,1.3-6.9,1.9-11,1.9c-4.4,0-8.3-0.3-11.7-0.9c-3.4-0.6-6.2-1.2-8.3-1.8
		v-75.6l9.4-1.6L517.1,551.6L517.1,551.6L517.1,551.6z M521.1,594.6c1.7,0.2,3.9,0.4,6.4,0.4c5.1,0,9.1-1.7,12.2-5
		c3-3.4,4.6-8.1,4.6-14.3c0-2.7-0.3-5.2-0.8-7.6c-0.5-2.4-1.4-4.4-2.6-6.1c-1.2-1.7-2.8-3.1-4.7-4.1c-1.9-1-4.3-1.5-7-1.5
		c-2.6,0-4.9,0.4-7.1,1.3c-2.2,0.9-3.8,1.8-5,2.7v33.4C518,594.1,519.4,594.4,521.1,594.6z M606.8,600.5c-2.2,0.5-5,1.1-8.6,1.7
		c-3.6,0.6-7.7,0.9-12.3,0.9c-4.1,0-7.5-0.6-10.2-1.8c-2.8-1.2-5-2.9-6.7-5c-1.7-2.2-2.9-4.7-3.7-7.7c-0.7-3-1.1-6.2-1.1-9.8v-29.6
		h9.4v27.6c0,6.4,1,11,3,13.8c2,2.8,5.4,4.2,10.3,4.2c1,0,2.1,0,3.2-0.1c1.1-0.1,2.1-0.1,3-0.2c0.9-0.1,1.8-0.2,2.6-0.3
		c0.8-0.1,1.3-0.2,1.7-0.4v-44.6h9.4L606.8,600.5L606.8,600.5L606.8,600.5z M620.4,550.8c2.2-0.5,5-1.1,8.6-1.7
		c3.6-0.6,7.7-0.9,12.4-0.9c4.2,0,7.7,0.6,10.5,1.8c2.8,1.2,5,2.8,6.7,5c1.7,2.1,2.8,4.7,3.5,7.7c0.7,3,1,6.3,1,9.9v29.6h-9.4v-27.6
		c0-3.3-0.2-6-0.7-8.3c-0.4-2.3-1.2-4.2-2.2-5.6c-1-1.4-2.4-2.5-4.1-3.1c-1.7-0.7-3.8-1-6.3-1c-1,0-2.1,0-3.1,0.1
		c-1.1,0.1-2.1,0.2-3.1,0.3c-1,0.1-1.9,0.2-2.6,0.4c-0.8,0.1-1.3,0.2-1.7,0.3v44.6h-9.4V550.8z M684.9,549.3h20v7.9h-20v24.4
		c0,2.6,0.2,4.8,0.6,6.5c0.4,1.7,1,3.1,1.8,4.1c0.8,1,1.8,1.7,3,2.1c1.2,0.4,2.6,0.6,4.3,0.6c2.9,0,5.2-0.3,6.9-1
		c1.7-0.6,2.8-1.1,3.4-1.4l2,7.7c-0.9,0.5-2.6,1.1-5,1.8c-2.4,0.7-5.1,1.1-8.2,1.1c-3.6,0-6.6-0.5-8.9-1.4c-2.3-0.9-4.2-2.3-5.6-4.1
		c-1.4-1.8-2.4-4.1-3-6.7c-0.6-2.7-0.9-5.8-0.9-9.3v-47.1l9.4-1.6L684.9,549.3L684.9,549.3L684.9,549.3z M756.2,600.5
		c-2.2,0.5-5,1.1-8.6,1.7c-3.5,0.6-7.7,0.9-12.3,0.9c-4.1,0-7.5-0.6-10.3-1.8c-2.8-1.2-5-2.9-6.7-5c-1.7-2.2-2.9-4.7-3.7-7.7
		c-0.7-3-1.1-6.2-1.1-9.8v-29.6h9.5v27.6c0,6.4,1,11,3,13.8c2,2.8,5.4,4.2,10.3,4.2c1,0,2.1,0,3.1-0.1c1.1-0.1,2.1-0.1,3-0.2
		c0.9-0.1,1.8-0.2,2.6-0.3c0.8-0.1,1.3-0.2,1.7-0.4v-44.6h9.4L756.2,600.5L756.2,600.5L756.2,600.5z"/>
</g>
<g>
	<g>
		<path d="M863.5,112.5h4.8c1.5,0,2.7,0.3,3.8,0.9c1.1,0.6,1.9,1.4,2.5,2.5c0.6,1.1,0.9,2.3,0.9,3.7c0,1.4-0.3,2.6-0.9,3.7
			c-0.6,1.1-1.4,1.9-2.5,2.5c-1.1,0.6-2.4,0.9-3.8,0.9h-4.8V112.5z M868.2,124c1.5,0,2.7-0.4,3.5-1.2c0.8-0.8,1.2-1.9,1.2-3.3
			c0-1.4-0.4-2.5-1.2-3.3c-0.8-0.8-2-1.2-3.5-1.2h-2v9.1H868.2z"/>
		<path d="M878,112.5h5.5c0.8,0,1.5,0.2,2.2,0.5c0.7,0.3,1.2,0.8,1.6,1.3c0.4,0.6,0.6,1.2,0.6,1.8c0,0.7-0.2,1.3-0.5,1.8
			c-0.3,0.5-0.8,0.9-1.4,1.2v0.2c0.7,0.3,1.3,0.7,1.8,1.2c0.4,0.6,0.6,1.3,0.6,2.1c0,0.8-0.2,1.5-0.6,2.1c-0.4,0.6-1,1.1-1.7,1.4
			c-0.7,0.3-1.5,0.5-2.3,0.5H878V112.5z M883.4,118.2c0.6,0,1-0.2,1.4-0.5c0.3-0.3,0.5-0.7,0.5-1.2c0-0.5-0.2-0.9-0.5-1.2
			c-0.3-0.3-0.8-0.5-1.3-0.5h-2.7v3.4H883.4z M883.6,124.1c0.6,0,1.1-0.2,1.5-0.5c0.4-0.3,0.5-0.8,0.5-1.3c0-0.5-0.2-1-0.6-1.3
			c-0.4-0.3-0.9-0.5-1.6-0.5h-2.9v3.6H883.6z"/>
	</g>
	<g>
		<path d="M849.6,147.7c-1,0.4-2,0.6-3,0.6c-1.4,0-2.6-0.3-3.7-1s-2-1.5-2.6-2.7c-0.6-1.1-1-2.4-1-3.7c0-1.4,0.3-2.6,1-3.7
			c0.6-1.1,1.5-2,2.6-2.7c1.1-0.6,2.4-1,3.7-1c1.4,0,2.6,0.3,3.7,1c1.1,0.6,2,1.5,2.6,2.7c0.6,1.1,1,2.4,1,3.7c0,1.1-0.2,2.1-0.6,3
			c-0.4,0.9-1,1.7-1.7,2.4l1.1,1.6l-2,1.3L849.6,147.7z M848.1,145.5l-1.5-2.3l2-1.3l1.5,2.3c0.4-0.4,0.6-0.9,0.8-1.4
			c0.2-0.6,0.3-1.1,0.3-1.8c0-0.9-0.2-1.8-0.6-2.5c-0.4-0.7-1-1.3-1.7-1.7c-0.7-0.4-1.5-0.6-2.4-0.6c-0.9,0-1.7,0.2-2.4,0.6
			c-0.7,0.4-1.3,1-1.7,1.7c-0.4,0.7-0.6,1.6-0.6,2.5c0,0.9,0.2,1.8,0.6,2.5c0.4,0.7,1,1.3,1.7,1.7c0.7,0.4,1.5,0.6,2.4,0.6
			C847,145.8,847.6,145.7,848.1,145.5z"/>
		<path d="M856.9,147.2c-0.6-0.7-0.9-1.8-0.9-3.1V138h2.6v5.8c0,0.7,0.2,1.2,0.5,1.6c0.3,0.4,0.8,0.6,1.3,0.6c0.7,0,1.3-0.3,1.8-0.8
			c0.4-0.5,0.6-1.2,0.6-2V138h2.6v10h-2.4v-1.3h-0.2c-0.3,0.5-0.7,0.9-1.3,1.2c-0.5,0.3-1.1,0.4-1.8,0.4
			C858.5,148.3,857.5,147.9,856.9,147.2z"/>
		<path d="M869.7,147.6c-0.8-0.5-1.4-1.1-1.9-1.9c-0.5-0.8-0.7-1.7-0.7-2.7c0-1,0.2-1.8,0.7-2.7c0.4-0.8,1.1-1.5,1.8-2
			c0.8-0.5,1.7-0.7,2.6-0.7c1,0,1.9,0.2,2.7,0.7c0.7,0.4,1.3,1.1,1.7,1.8c0.4,0.8,0.6,1.6,0.6,2.6c0,0.3,0,0.6-0.1,0.9h-7.5
			c0.1,0.8,0.4,1.4,1,1.8c0.5,0.4,1.1,0.6,1.8,0.6c0.6,0,1.1-0.1,1.5-0.4c0.4-0.3,0.8-0.6,1-1l2.1,1c-1,1.8-2.6,2.7-4.7,2.7
			C871.4,148.3,870.5,148.1,869.7,147.6z M874.8,141.8c0-0.3-0.1-0.6-0.3-0.9c-0.2-0.3-0.5-0.6-0.8-0.8c-0.4-0.2-0.8-0.3-1.3-0.3
			c-0.6,0-1.1,0.2-1.6,0.5c-0.4,0.4-0.8,0.8-1,1.5H874.8z"/>
		<path d="M879.3,138h2.4v1.3h0.2c0.2-0.5,0.6-0.9,1.2-1.2s1.1-0.5,1.7-0.5c0.5,0,0.9,0.1,1.3,0.2v2.6c-0.4-0.1-0.7-0.2-0.9-0.3
			c-0.2-0.1-0.5-0.1-0.8-0.1c-0.8,0-1.4,0.3-1.8,0.8c-0.4,0.6-0.7,1.2-0.7,2.1v5h-2.6V138z"/>
		<path d="M888,136.4c-0.3-0.3-0.5-0.7-0.5-1.2c0-0.5,0.2-0.8,0.5-1.2c0.3-0.3,0.7-0.5,1.2-0.5c0.5,0,0.8,0.2,1.2,0.5
			c0.3,0.3,0.5,0.7,0.5,1.2c0,0.5-0.2,0.9-0.5,1.2c-0.3,0.3-0.7,0.5-1.2,0.5C888.7,136.9,888.3,136.7,888,136.4z M887.8,138h2.6v10
			h-2.6V138z"/>
		<path d="M895,147.6c-0.8-0.5-1.4-1.1-1.9-1.9c-0.5-0.8-0.7-1.7-0.7-2.7c0-1,0.2-1.8,0.7-2.7c0.4-0.8,1.1-1.5,1.8-2
			c0.8-0.5,1.7-0.7,2.6-0.7c1,0,1.9,0.2,2.7,0.7c0.7,0.4,1.3,1.1,1.7,1.8c0.4,0.8,0.6,1.6,0.6,2.6c0,0.3,0,0.6-0.1,0.9H895
			c0.1,0.8,0.4,1.4,1,1.8c0.5,0.4,1.1,0.6,1.8,0.6c0.6,0,1.1-0.1,1.5-0.4c0.4-0.3,0.8-0.6,1-1l2.1,1c-1,1.8-2.6,2.7-4.7,2.7
			C896.7,148.3,895.8,148.1,895,147.6z M900.1,141.8c0-0.3-0.1-0.6-0.3-0.9c-0.2-0.3-0.5-0.6-0.8-0.8c-0.4-0.2-0.8-0.3-1.3-0.3
			c-0.6,0-1.1,0.2-1.6,0.5c-0.4,0.4-0.8,0.8-1,1.5H900.1z"/>
		<path d="M905.5,147.6c-0.8-0.5-1.3-1.1-1.6-1.9l2.3-1c0.2,0.5,0.5,0.8,0.9,1.1c0.4,0.2,0.8,0.4,1.3,0.4c0.5,0,0.9-0.1,1.2-0.2
			c0.3-0.2,0.5-0.4,0.5-0.7c0-0.3-0.1-0.6-0.4-0.7c-0.3-0.2-0.7-0.3-1.3-0.4l-1.2-0.3c-0.8-0.2-1.5-0.6-2-1.1
			c-0.5-0.5-0.8-1.2-0.8-1.9c0-0.6,0.2-1.1,0.5-1.6c0.3-0.5,0.8-0.8,1.4-1.1c0.6-0.2,1.3-0.4,2-0.4c2.1,0,3.5,0.7,4.2,2.2l-2.2,1
			c-0.4-0.7-1-1.1-1.9-1.1c-0.4,0-0.8,0.1-1.1,0.2c-0.3,0.2-0.4,0.4-0.4,0.6c0,0.5,0.4,0.8,1.3,1.1l1.5,0.4c1,0.2,1.7,0.6,2.3,1.1
			c0.5,0.5,0.8,1.1,0.8,1.9c0,0.6-0.2,1.2-0.6,1.7c-0.4,0.5-0.9,0.9-1.5,1.2c-0.6,0.3-1.4,0.4-2.2,0.4
			C907.3,148.3,906.3,148.1,905.5,147.6z"/>
	</g>
</g>
<polygon points="1608.2,566.1 1608.2,327 1604.4,327 1604.4,566.1 1248.5,566.1 1277,549.6 1275.1,546.3 1237.5,568 1275.1,589.7 
	1277,586.4 1248.5,569.9 1604.4,569.9 1608.2,569.9 "/>
<polygon points="134.8,274.6 138.1,276.5 154.5,248 154.5,527 158.4,527 158.4,248 174.8,276.5 178.1,274.6 156.5,237 "/>
<polygon points="929.8,165.8 927.9,169.1 956.4,185.6 795,185.6 823.5,169.1 821.6,165.8 784,187.5 821.6,209.2 823.5,205.9 
	795,189.4 956.4,189.4 927.9,205.9 929.8,209.2 967.3,187.5 "/>
<polygon points="513.3,168.2 511.4,171.5 539.9,187.9 315.5,187.9 344,171.5 342.1,168.2 304.5,189.9 342.1,211.5 344,208.2 
	315.5,191.8 539.9,191.8 511.4,208.2 513.3,211.5 550.8,189.9 "/>
</svg>
